$MeshFormat
4.1 0 8
$EndMeshFormat
$PhysicalNames
6
1 2 "i"
1 3 "o"
1 4 "t"
1 5 "b"
1 6 "c"
2 1 "Volume"
$EndPhysicalNames
$Entities
8 7 2 0
1 0 0 0 0 
2 1 0 0 0 
3 1 1 0 0 
4 0 1 0 0 
5 0.5 0.5 0 0 
6 0.75 0.5 0 0 
7 0.3750000000000001 0.7165063509461097 0 0 
8 0.3749999999999999 0.2834936490538904 0 0 
1 0 0 0 0 1 0 1 2 2 4 -1 
2 0 0 0 1 0 0 1 5 2 1 -2 
3 1 0 0 1 1 0 1 3 2 2 -3 
4 0 1 0 1 1 0 1 4 2 3 -4 
5 0.3750000000000001 0.5 0 0.75 0.7495770395678171 0 1 6 2 6 -7 
6 0.2516904105645142 0.2834936490538904 0 0.3750000000000001 0.7165063509461097 0 1 6 2 7 -8 
7 0.3749999999999999 0.2504229604321829 0 0.75 0.5 0 1 6 2 8 -6 
1 0.2516904105645142 0.2504229604321829 0 0.75 0.7495770395678171 0 0 3 5 6 7 
2 0 0 0 1 1 0 1 1 7 1 2 3 4 -7 -6 -5 
$EndEntities
$Nodes
15 141 1 141
0 1 0 1
1
0 0 0
0 2 0 1
2
1 0 0
0 3 0 1
3
1 1 0
0 4 0 1
4
0 1 0
0 6 0 1
5
0.75 0.5 0
0 7 0 1
6
0.3750000000000001 0.7165063509461097 0
0 8 0 1
7
0.3749999999999999 0.2834936490538904 0
1 1 0 9
8
9
10
11
12
13
14
15
16
0 0.8999999999995836 0
0 0.7999999999999998 0
0 0.7000000000006934 0
0 0.6000000000013869 0
0 0.5000000000020587 0
0 0.4000000000016644 0
0 0.3000000000012483 0
0 0.2000000000008322 0
0 0.100000000000416 0
1 2 0 9
17
18
19
20
21
22
23
24
25
0.09999999999981467 0 0
0.1999999999995579 0 0
0.2999999999992664 0 0
0.3999999999989749 0 0
0.4999999999986943 0 0
0.5999999999989468 0 0
0.69999999999921 0 0
0.7999999999994734 0 0
0.8999999999997368 0 0
1 3 0 9
26
27
28
29
30
31
32
33
34
1 0.09999999999981467 0
1 0.1999999999995579 0
1 0.2999999999992664 0
1 0.3999999999989749 0
1 0.4999999999986943 0
1 0.5999999999989468 0
1 0.69999999999921 0
1 0.7999999999994734 0
1 0.8999999999997368 0
1 4 0 9
35
36
37
38
39
40
41
42
43
0.8999999999995836 1 0
0.7999999999999998 1 0
0.7000000000006934 1 0
0.6000000000013869 1 0
0.5000000000020587 1 0
0.4000000000016644 1 0
0.3000000000012483 1 0
0.2000000000008322 1 0
0.100000000000416 1 0
1 5 0 5
44
45
46
47
48
0.7349231550696919 0.5855050361797567 0
0.691511110440996 0.6606969028253395 0
0.6249999993510345 0.7165063513207901 0
0.5434120439701151 0.7462019383318027 0
0.4565879553710103 0.7462019382156253 0
1 6 0 5
49
50
51
52
53
0.3084888891043004 0.660696902283445 0
0.2650768446431505 0.5855050353907976 0
0.25 0.4999999993223791 0
0.2650768449394766 0.4144949637950532 0
0.3084888893362516 0.3393030974401263 0
1 7 0 5
54
55
56
57
58
0.4565879557527611 0.2537980617170617 0
0.5434120448450099 0.2537980618224648 0
0.6250000005701681 0.2834936493830771 0
0.6915111110647478 0.339303097918019 0
0.7349231552724446 0.4144949643773016 0
2 2 0 83
59
60
61
62
63
64
65
66
67
68
69
70
71
72
73
74
75
76
77
78
79
80
81
82
83
84
85
86
87
88
89
90
91
92
93
94
95
96
97
98
99
100
101
102
103
104
105
106
107
108
109
110
111
112
113
114
115
116
117
118
119
120
121
122
123
124
125
126
127
128
129
130
131
132
133
134
135
136
137
138
139
140
141
0.7086259371231289 0.2582482960201323 0
0.2934120446044775 0.2537980617902357 0
0.2914159439786958 0.7417599571012917 0
0.6966165544832694 0.7588918798227819 0
0.8479731405375693 0.8984792333664032 0
0.08886058496275928 0.8521585050965068 0
0.08660254037880416 0.1500000000006241 0
0.8505835971118657 0.0933197978518811 0
0.9265108004779345 0.7508932008161622 0
0.9272458142177814 0.2492156155438214 0
0.08660254037879478 0.3500000000014563 0
0.08094977419330136 0.6563077798298167 0
0.8238962774931506 0.4428873694984882 0
0.6110999125290688 0.8107744858959973 0
0.361983904721013 0.7949750673637936 0
0.6380098146755813 0.2049743708731505 0
0.3868823891419854 0.1914626327612873 0
0.2755386622609932 0.8321691427772198 0
0.8249724101935327 0.5569298902005159 0
0.4901069623970626 0.1617016084857604 0
0.5095786942689553 0.8385917406623997 0
0.2497365316284538 0.07841660698847359 0
0.6988293866944836 0.8427653550304515 0
0.7783351996799912 0.3393030980337611 0
0.7899132702335903 0.6466370409258186 0
0.2107631469028482 0.7703761282955286 0
0.7239740634788173 0.1655670950915371 0
0.2279956186894465 0.3122103178831221 0
0.1854517380753696 0.5582994991529335 0
0.1702816252336572 0.4712835897903899 0
0.7716845371698696 0.8244380953892854 0
0.2163109657596334 0.2266645465384687 0
0.862006512167234 0.3694682009523159 0
0.8645885610760686 0.6277844787554949 0
0.221664800056103 0.6606969021306355 0
0.789407053347732 0.229323020844085 0
0.5767779475007083 0.9013743649471069 0
0.4203798861166641 0.1002769828833987 0
0.3508578786574879 0.8977092082859368 0
0.6498911664285608 0.1018514013959374 0
0.4482359048622536 0.9121672694325411 0
0.5517152604312172 0.08777679223578644 0
0.8950565898181063 0.5000000001675742 0
0.187553498724213 0.8561122032514897 0
0.096344954781654 0.5502193505708696 0
0.08386313308992518 0.2496844419312267 0
0.07769152167727772 0.7531749386644859 0
0.2876629906313635 0.1623065151347233 0
0.7447478440672759 0.9152779995647633 0
0.1517011030132487 0.07448552463928214 0
0.9275988323350824 0.1527648894491518 0
0.9262727970578897 0.8459092970805756 0
0.1735902182446075 0.3831983063601789 0
0.08119511776618379 0.440634069298818 0
0.754090291358097 0.08462331063005715 0
0.243991673274233 0.9204485602277284 0
0.3407769662527846 0.08874378962798046 0
0.6552425151322694 0.9116987009063864 0
0.851375058613342 0.2896186368374689 0
0.1477735478596522 0.7109408035696498 0
0.85943538516068 0.700879988860459 0
0.1511106403150097 0.2931728097703813 0
0.7970299301422611 0.1525264579774764 0
0.1492167079775811 0.9289602601376639 0
0.5730571999982111 0.1627629543033544 0
0.4269520882274179 0.8371656301869115 0
0.1513836398306937 0.6261749807829783 0
0.1886452577882862 0.1486327586813461 0
0.07301459004772988 0.9264649796565133 0
0.9267949192428435 0.07320508075703633 0
0.07320508075713333 0.07320508075729446 0
0.930904239792032 0.9278575655932431 0
0.8563579220887371 0.7992884290585397 0
0.777586463262857 0.7318053894803704 0
0.9319538144099002 0.3421323750482093 0
0.9215235377673484 0.4256094970752217 0
0.9286856111435933 0.658989757445628 0
0.9215789201468771 0.5743808762434959 0
0.1426375643733759 0.2069170080711501 0
0.1403085184212473 0.7958781043897161 0
0.8599893972095252 0.1991861396432739 0
0.5132111307030907 0.9315202845746969 0
0.4829943716254921 0.06882589731417799 0
$EndNodes
$Elements
8 282 1 282
1 1 1 10
1 4 8 
2 8 9 
3 9 10 
4 10 11 
5 11 12 
6 12 13 
7 13 14 
8 14 15 
9 15 16 
10 16 1 
1 2 1 10
11 1 17 
12 17 18 
13 18 19 
14 19 20 
15 20 21 
16 21 22 
17 22 23 
18 23 24 
19 24 25 
20 25 2 
1 3 1 10
21 2 26 
22 26 27 
23 27 28 
24 28 29 
25 29 30 
26 30 31 
27 31 32 
28 32 33 
29 33 34 
30 34 3 
1 4 1 10
31 3 35 
32 35 36 
33 36 37 
34 37 38 
35 38 39 
36 39 40 
37 40 41 
38 41 42 
39 42 43 
40 43 4 
1 5 1 6
41 5 44 
42 44 45 
43 45 46 
44 46 47 
45 47 48 
46 48 6 
1 6 1 6
47 6 49 
48 49 50 
49 50 51 
50 51 52 
51 52 53 
52 53 7 
1 7 1 6
53 7 54 
54 54 55 
55 55 56 
56 56 57 
57 57 58 
58 58 5 
2 2 2 224
59 89 63 107 
60 72 81 116 
61 95 72 116 
62 96 75 115 
63 75 106 115 
64 63 89 131 
65 61 84 93 
66 82 59 94 
67 88 103 112 
68 40 41 97 
69 22 23 98 
70 40 97 99 
71 22 98 100 
72 69 111 112 
73 88 87 103 
74 72 62 81 
75 71 82 91 
76 53 52 86 
77 52 51 88 
78 83 77 92 
79 6 48 73 
80 56 55 74 
81 77 71 101 
82 78 75 96 
83 79 72 95 
84 57 59 82 
85 49 61 93 
86 75 60 106 
87 7 60 75 
88 46 62 72 
89 111 88 112 
90 81 89 107 
91 71 58 82 
92 87 50 93 
93 44 77 83 
94 119 92 135 
95 5 71 77 
96 54 75 78 
97 47 72 79 
98 67 119 135 
99 91 117 133 
100 117 68 133 
101 86 52 111 
102 20 96 115 
103 52 88 111 
104 60 90 106 
105 74 55 123 
106 73 48 124 
107 93 84 118 
108 82 94 117 
109 103 12 112 
110 106 90 126 
111 87 93 125 
112 98 23 113 
113 95 38 140 
114 96 20 141 
115 62 45 132 
116 45 83 132 
117 97 41 114 
118 100 78 141 
119 38 95 116 
120 99 79 140 
121 39 40 99 
122 21 22 100 
123 81 107 116 
124 78 96 141 
125 79 95 140 
126 30 101 134 
127 71 91 134 
128 69 14 104 
129 10 70 105 
130 101 30 136 
131 92 77 136 
132 121 66 139 
133 101 71 134 
134 65 126 137 
135 77 101 136 
136 65 108 126 
137 70 11 103 
138 81 62 89 
139 110 63 131 
140 66 109 139 
141 13 14 69 
142 10 11 70 
143 107 37 116 
144 18 19 80 
145 27 28 68 
146 32 33 67 
147 15 65 104 
148 64 9 105 
149 64 102 122 
150 11 12 103 
151 14 15 104 
152 9 10 105 
153 103 87 125 
154 24 25 66 
155 15 16 65 
156 35 36 63 
157 8 9 64 
158 111 69 120 
159 29 30 134 
160 30 31 136 
161 99 97 124 
162 36 37 107 
163 100 98 123 
164 85 98 113 
165 114 42 122 
166 119 131 132 
167 24 66 113 
168 46 45 62 
169 49 6 61 
170 7 53 60 
171 57 56 59 
172 17 18 108 
173 26 27 109 
174 33 34 110 
175 12 13 112 
176 45 44 83 
177 58 57 82 
178 70 103 125 
179 50 49 93 
180 80 106 126 
181 51 50 87 
182 38 39 140 
183 5 58 71 
184 20 21 141 
185 102 114 122 
186 54 7 75 
187 47 46 72 
188 44 5 77 
189 61 76 84 
190 55 54 78 
191 48 47 79 
192 131 89 132 
193 90 120 137 
194 18 80 108 
195 59 85 94 
196 27 68 109 
197 67 33 110 
198 60 53 86 
199 19 20 115 
200 61 6 73 
201 59 56 74 
202 51 87 88 
203 63 36 107 
204 90 86 120 
205 84 76 102 
206 61 73 76 
207 76 73 97 
208 60 86 90 
209 85 74 98 
210 59 74 85 
211 68 28 133 
212 32 67 135 
213 13 69 112 
214 105 70 118 
215 98 74 123 
216 55 78 123 
217 97 73 124 
218 41 42 114 
219 48 79 124 
220 23 24 113 
221 43 4 127 
222 4 8 127 
223 79 99 124 
224 78 100 123 
225 2 26 128 
226 25 2 128 
227 1 17 129 
228 16 1 129 
229 3 35 130 
230 34 3 130 
231 76 97 114 
232 80 19 115 
233 39 99 140 
234 37 38 116 
235 106 80 115 
236 83 92 119 
237 21 100 141 
238 102 76 114 
239 64 122 127 
240 91 82 117 
241 86 111 120 
242 102 64 138 
243 69 104 120 
244 113 66 121 
245 120 104 137 
246 118 70 125 
247 85 113 121 
248 42 43 122 
249 17 108 129 
250 26 109 128 
251 110 34 130 
252 104 65 137 
253 64 105 138 
254 66 25 128 
255 65 16 129 
256 35 63 130 
257 8 64 127 
258 89 62 132 
259 94 85 121 
260 84 102 138 
261 28 29 133 
262 31 32 135 
263 118 84 138 
264 93 118 125 
265 108 80 126 
266 108 65 129 
267 109 66 128 
268 63 110 130 
269 117 94 139 
270 105 118 138 
271 119 67 131 
272 67 110 131 
273 68 117 139 
274 109 68 139 
275 126 90 137 
276 83 119 132 
277 94 121 139 
278 91 133 134 
279 135 92 136 
280 133 29 134 
281 31 135 136 
282 122 43 127 
$EndElements
