$MeshFormat
4.1 0 8
$EndMeshFormat
$PhysicalNames
6
1 2 "i"
1 3 "o"
1 4 "t"
1 5 "b"
1 6 "c"
2 1 "Volume"
$EndPhysicalNames
$Entities
8 7 2 0
1 0 0 0 0 
2 0.5 0 0 0 
3 0.5 0.5 0 0 
4 0 0.5 0 0 
5 0.25 0.25 0 0 
6 0.3 0.25 0 0 
7 0.225 0.2933012701892219 0 0 
8 0.225 0.2066987298107781 0 0 
1 0 0 0 0 0.5 0 1 2 2 4 -1 
2 0 0 0 0.5 0 0 1 5 2 1 -2 
3 0.5 0 0 0.5 0.5 0 1 3 2 2 -3 
4 0 0.5 0 0.5 0.5 0 1 4 2 3 -4 
5 0.225 0.25 0 0.3 0.2999154079135634 0 1 6 2 6 -7 
6 0.2003380821129029 0.2066987298107781 0 0.225 0.2933012701892219 0 1 6 2 7 -8 
7 0.225 0.2000845920864366 0 0.3 0.25 0 1 6 2 8 -6 
1 0.2003380821129029 0.2000845920864366 0 0.3 0.2999154079135634 0 0 3 5 6 7 
2 0 0 0 0.5 0.5 0 1 1 7 1 2 3 4 -7 -6 -5 
$EndEntities
$Nodes
15 64 1 64
0 1 0 1
1
0 0 0
0 2 0 1
2
0.5 0 0
0 3 0 1
3
0.5 0.5 0
0 4 0 1
4
0 0.5 0
0 6 0 1
5
0.3 0.25 0
0 7 0 1
6
0.225 0.2933012701892219 0
0 8 0 1
7
0.225 0.2066987298107781 0
1 1 0 4
8
9
10
11
0 0.3999999999999999 0
0 0.3000000000006934 0
0 0.2000000000008322 0
0 0.1000000000004161 0
1 2 0 4
12
13
14
15
0.09999999999977893 0 0
0.1999999999994874 0 0
0.2999999999994734 0 0
0.3999999999997367 0 0
1 3 0 4
16
17
18
19
0.5 0.09999999999977893 0
0.5 0.1999999999994874 0
0.5 0.2999999999994734 0
0.5 0.3999999999997367 0
1 4 0 4
20
21
22
23
0.3999999999999999 0.5 0
0.3000000000006934 0.5 0
0.2000000000008322 0.5 0
0.1000000000004161 0.5 0
1 5 0 1
24
0.2749999999344981 0.2933012702270394 0
1 6 0 1
25
0.2 0.2499999998055003 0
1 7 0 1
26
0.2750000001065145 0.2066987298722743 0
2 2 0 38
27
28
29
30
31
32
33
34
35
36
37
38
39
40
41
42
43
44
45
46
47
48
49
50
51
52
53
54
55
56
57
58
59
60
61
62
63
64
0.1724491900074975 0.2033039045999341 0
0.3275508099883994 0.2966960952664957 0
0.1724491899640032 0.2966960949987426 0
0.3275508100376771 0.2033039049628373 0
0.2545333993595725 0.153620202093081 0
0.2454666006719159 0.3463797979597854 0
0.1448762582512679 0.4336222921884362 0
0.3551237417475596 0.06637770781866503 0
0.152237856074175 0.08447394991795305 0
0.3477621439363374 0.4155260500708989 0
0.4213786076203834 0.2500000000767448 0
0.07862139236857617 0.2499999998691674 0
0.06871197315407464 0.1635553271651953 0
0.4312880268323815 0.1635553274568156 0
0.4312880268404962 0.3364446727313778 0
0.06871197316678963 0.3364446725209087 0
0.235788383347302 0.07839745967851658 0
0.2642116167225872 0.4216025403619617 0
0.1986683550422619 0.3372186697253028 0
0.3013316449844984 0.1627813302958039 0
0.1969744709946278 0.1456077809806712 0
0.3030255290241451 0.354392218965379 0
0.1432056763371375 0.2499999997581953 0
0.3567943236536201 0.2500000001243254 0
0.077131304401208 0.08253028614455482 0
0.4240956285949571 0.07951424598467248 0
0.4228686956113277 0.4174697137846844 0
0.075904371397585 0.42048575400399 0
0.1209652458093011 0.2028023342352513 0
0.3790347541988064 0.2971976656210074 0
0.3790347542268255 0.2028023346506997 0
0.1209652457607086 0.2971976652923218 0
0.3008231954047452 0.1013881900864736 0
0.1991768046093169 0.3986118099250135 0
0.1343906230560727 0.1470761236338803 0
0.365609376968837 0.352923876216008 0
0.3581620029900653 0.1471524406327754 0
0.1418379969670364 0.352847559314595 0
$EndNodes
$Elements
8 128 1 128
1 1 1 5
1 4 8 
2 8 9 
3 9 10 
4 10 11 
5 11 1 
1 2 1 5
6 1 12 
7 12 13 
8 13 14 
9 14 15 
10 15 2 
1 3 1 5
11 2 16 
12 16 17 
13 17 18 
14 18 19 
15 19 3 
1 4 1 5
16 3 20 
17 20 21 
18 21 22 
19 22 23 
20 23 4 
1 5 1 2
21 5 24 
22 24 6 
1 6 1 2
23 6 25 
24 25 7 
1 7 1 2
25 7 26 
26 26 5 
2 2 2 102
27 35 43 47 
28 36 44 48 
29 43 31 47 
30 44 32 48 
31 43 14 59 
32 44 22 60 
33 17 18 37 
34 9 10 38 
35 14 34 59 
36 22 33 60 
37 12 13 35 
38 14 15 34 
39 20 21 36 
40 22 23 33 
41 38 10 39 
42 17 37 40 
43 37 18 41 
44 9 38 42 
45 35 47 61 
46 36 48 62 
47 35 13 43 
48 36 21 44 
49 31 43 59 
50 32 44 60 
51 13 14 43 
52 21 22 44 
53 38 39 55 
54 37 41 56 
55 40 37 57 
56 42 38 58 
57 1 12 51 
58 3 20 53 
59 15 2 52 
60 23 4 54 
61 10 11 39 
62 16 17 40 
63 18 19 41 
64 8 9 42 
65 11 1 51 
66 2 16 52 
67 19 3 53 
68 4 8 54 
69 12 35 51 
70 34 15 52 
71 20 36 53 
72 33 23 54 
73 34 52 63 
74 33 54 64 
75 53 36 62 
76 51 35 61 
77 45 60 64 
78 46 59 63 
79 46 31 59 
80 45 32 60 
81 52 40 63 
82 54 42 64 
83 41 53 62 
84 39 51 61 
85 26 7 31 
86 6 24 32 
87 25 6 29 
88 24 5 28 
89 5 26 30 
90 7 25 27 
91 39 11 51 
92 16 40 52 
93 41 19 53 
94 8 42 54 
95 47 27 61 
96 48 28 62 
97 29 45 64 
98 30 46 63 
99 60 33 64 
100 59 34 63 
101 27 55 61 
102 28 56 62 
103 58 29 64 
104 57 30 63 
105 6 32 45 
106 26 31 46 
107 31 7 47 
108 32 24 48 
109 29 6 45 
110 30 26 46 
111 24 28 48 
112 7 27 47 
113 25 29 49 
114 27 25 49 
115 28 5 50 
116 5 30 50 
117 27 49 55 
118 28 50 56 
119 49 29 58 
120 50 30 57 
121 49 38 55 
122 50 37 56 
123 37 50 57 
124 38 49 58 
125 40 57 63 
126 55 39 61 
127 42 58 64 
128 56 41 62 
$EndElements
