$MeshFormat
4.1 0 8
$EndMeshFormat
$PhysicalNames
5
1 2 "r"
1 3 "R"
1 4 "top"
1 5 "bottom"
2 1 "Volume"
$EndPhysicalNames
$Entities
6 4 1 0
1 0 0 0 0 
2 0 0 0 0 
3 1 0 0 0 
4 0.7071067811865476 0.7071067811865475 0 0 
5 1.414213562373095 1.414213562373095 0 0 
6 2 0 0 0 
1 0.7071067811865476 0 0 1 0.7071067811865475 0 1 2 2 3 -4 
2 0.7071067811865476 0.7071067811865475 0 1.414213562373095 1.414213562373095 0 1 4 2 4 -5 
3 1.414213562373095 0 0 2 1.414213562373095 0 1 3 2 5 -6 
4 1 0 0 2 0 0 1 5 2 6 -3 
1 0.7071067811865476 0 0 2 1.414213562373095 0 1 1 4 1 2 3 4 
$EndEntities
$Nodes
9 617 1 617
0 3 0 1
1
1 0 0
0 4 0 1
2
0.7071067811865476 0.7071067811865475 0
0 5 0 1
3
1.414213562373095 1.414213562373095 0
0 6 0 1
4
2 0 0
1 1 0 15
5
6
7
8
9
10
11
12
13
14
15
16
17
18
19
0.998795456200073 0.04906767443121771 0
0.9951847266485508 0.09801714056964266 0
0.989176509908181 0.146730474836928 0
0.9807852803022051 0.195090322524017 0
0.9700312530284171 0.2429801805664796 0
0.9569403354952272 0.2902846780356865 0
0.9415440648596896 0.3368898542958703 0
0.9238795320956878 0.3826834333684342 0
0.903989292709529 0.4275550943054304 0
0.8819212639620182 0.4713967375487831 0
0.8577286096775257 0.5141027447316914 0
0.8314696120142536 0.5555702334510612 0
0.8032075312539582 0.5956993047980851 0
0.7730104532336322 0.6343932843209601 0
0.7409511253169009 0.6715589548890091 0
1 2 0 19
20
21
22
23
24
25
26
27
28
29
30
31
32
33
34
35
36
37
38
0.7424621202458414 0.7424621202458412 0
0.7778174593051199 0.7778174593051198 0
0.813172798364353 0.8131727983643529 0
0.8485281374235492 0.848528137423549 0
0.8838834764827453 0.8838834764827452 0
0.9192388155419372 0.9192388155419371 0
0.9545941546011268 0.9545941546011267 0
0.9899494936603924 0.9899494936603923 0
1.02530483271961 1.02530483271961 0
1.060660171778835 1.060660171778834 0
1.096015510838228 1.096015510838228 0
1.131370849897643 1.131370849897643 0
1.16672618895708 1.16672618895708 0
1.202081528016508 1.202081528016508 0
1.237436867075976 1.237436867075975 0
1.272792206135378 1.272792206135378 0
1.308147545194806 1.308147545194806 0
1.343502884254265 1.343502884254264 0
1.37885822331368 1.37885822331368 0
1 3 0 31
39
40
41
42
43
44
45
46
47
48
49
50
51
52
53
54
55
56
57
58
59
60
61
62
63
64
65
66
67
68
69
1.44849416590905 1.379081089467709 0
1.481902250839118 1.343117909551486 0
1.514417693242774 1.306345685641146 0
1.54602090702866 1.268786567957858 0
1.576692855629302 1.23046318067934 0
1.606415063464118 1.191398608306882 0
1.635169626883073 1.151616382012288 0
1.662939225234738 1.11114046509687 0
1.689707131144692 1.069995238755189 0
1.715457220712734 1.028205487198226 0
1.740173982968623 0.9857963831335148 0
1.763842529487906 0.9427934721717721 0
1.786448603274452 0.8992226575541569 0
1.807978587130869 0.8551101849915397 0
1.828419512283687 0.8104826260323434 0
1.847759065907678 0.765366862593348 0
1.865985598442715 0.7197900710654331 0
1.883088131048731 0.6737797048764504 0
1.899056361771255 0.6273634790264129 0
1.913880671948683 0.5805693529125171 0
1.927552131993741 0.5334255134940422 0
1.940062506707092 0.4859603585369855 0
1.951404260370142 0.4382024790085716 0
1.961570561038879 0.3901806428638089 0
1.97055528495923 0.3419237764754687 0
1.978353020057941 0.2934609480452649 0
1.984959069281583 0.2448213497160563 0
1.990369453394393 0.1960342801514749 0
1.994580913381552 0.1471291268716515 0
1.9975909124211 0.09813534843591865 0
1.99939763739569 0.04908245691215041 0
1 4 0 19
70
71
72
73
74
75
76
77
78
79
80
81
82
83
84
85
86
87
88
1.95 0 0
1.9 0 0
1.85 0 0
1.8 0 0
1.75 0 0
1.7 0 0
1.65 0 0
1.6 0 0
1.55 0 0
1.5 0 0
1.45 0 0
1.4 0 0
1.35 0 0
1.3 0 0
1.25 0 0
1.2 0 0
1.15 0 0
1.1 0 0
1.05 0 0
2 1 0 529
89
90
91
92
93
94
95
96
97
98
99
100
101
102
103
104
105
106
107
108
109
110
111
112
113
114
115
116
117
118
119
120
121
122
123
124
125
126
127
128
129
130
131
132
133
134
135
136
137
138
139
140
141
142
143
144
145
146
147
148
149
150
151
152
153
154
155
156
157
158
159
160
161
162
163
164
165
166
167
168
169
170
171
172
173
174
175
176
177
178
179
180
181
182
183
184
185
186
187
188
189
190
191
192
193
194
195
196
197
198
199
200
201
202
203
204
205
206
207
208
209
210
211
212
213
214
215
216
217
218
219
220
221
222
223
224
225
226
227
228
229
230
231
232
233
234
235
236
237
238
239
240
241
242
243
244
245
246
247
248
249
250
251
252
253
254
255
256
257
258
259
260
261
262
263
264
265
266
267
268
269
270
271
272
273
274
275
276
277
278
279
280
281
282
283
284
285
286
287
288
289
290
291
292
293
294
295
296
297
298
299
300
301
302
303
304
305
306
307
308
309
310
311
312
313
314
315
316
317
318
319
320
321
322
323
324
325
326
327
328
329
330
331
332
333
334
335
336
337
338
339
340
341
342
343
344
345
346
347
348
349
350
351
352
353
354
355
356
357
358
359
360
361
362
363
364
365
366
367
368
369
370
371
372
373
374
375
376
377
378
379
380
381
382
383
384
385
386
387
388
389
390
391
392
393
394
395
396
397
398
399
400
401
402
403
404
405
406
407
408
409
410
411
412
413
414
415
416
417
418
419
420
421
422
423
424
425
426
427
428
429
430
431
432
433
434
435
436
437
438
439
440
441
442
443
444
445
446
447
448
449
450
451
452
453
454
455
456
457
458
459
460
461
462
463
464
465
466
467
468
469
470
471
472
473
474
475
476
477
478
479
480
481
482
483
484
485
486
487
488
489
490
491
492
493
494
495
496
497
498
499
500
501
502
503
504
505
506
507
508
509
510
511
512
513
514
515
516
517
518
519
520
521
522
523
524
525
526
527
528
529
530
531
532
533
534
535
536
537
538
539
540
541
542
543
544
545
546
547
548
549
550
551
552
553
554
555
556
557
558
559
560
561
562
563
564
565
566
567
568
569
570
571
572
573
574
575
576
577
578
579
580
581
582
583
584
585
586
587
588
589
590
591
592
593
594
595
596
597
598
599
600
601
602
603
604
605
606
607
608
609
610
611
612
613
614
615
616
617
0.9527773036306832 0.4216012026929774 0
1.852361689263655 0.6487764114902576 0
1.763539632628156 0.8579788665175597 0
1.425353433383547 0.04548795975364888 0
1.033555037597298 0.9780984096862492 0
1.670406140061546 1.021220693999315 0
1.905123053279394 0.4517022244215722 0
1.004197890929559 0.2789406504611347 0
1.180015181852089 1.12133901547109 0
1.625483433280748 0.035536740090306 0
0.8854187084023334 0.5628629356729576 0
1.275068861232616 0.04530777872419203 0
0.9321043376152136 0.8708839256634826 0
1.581658803163281 1.149486590755375 0
1.932484111949449 0.3109393255730096 0
1.285117138875749 1.225553418019318 0
1.776569846480768 0.04597447647800253 0
1.034882314224999 0.1787543290553122 0
1.4993387059435 1.253133330177461 0
1.953263734074862 0.1688368773113221 0
0.8199934384707417 0.6399643707553327 0
0.8611652052225962 0.800477502318774 0
1.176337163535087 0.0426889916651245 0
1.108956463093306 1.047719219523758 0
1.525033915845612 0.04278039884806085 0
1.80319627616985 0.7692677476283016 0
1.877224849030564 0.5444373455470706 0
1.713735491266988 0.9455526259126593 0
1.362706296657388 1.292803663796983 0
1.874999999999999 0.04330127018922177 0
1.045564283086771 0.07526093772212973 0
0.7907584115602084 0.7295211679907527 0
1.434053181028806 1.332167249326933 0
1.959677407606051 0.0700762519636647 0
0.9716515897092133 0.3754615323548292 0
1.001866854700305 0.4149868402147682 0
0.9813884521041309 0.4615420620437506 0
1.031908809802538 0.4537503266712118 0
1.013104159817395 0.4997707221212969 0
1.062662539300155 0.49221857479215 0
1.080841708765238 0.4465283043579725 0
1.111404626900642 0.4850823069362518 0
1.129577386148076 0.439359361653231 0
1.16010884323164 0.4779611612252259 0
1.141913584483162 0.5236219767656425 0
1.190623776248984 0.5164565675553583 0
1.208706539531442 0.4708985323807483 0
1.239325027410327 0.5094748583675275 0
1.220964957783895 0.5549153801891828 0
1.269887360037885 0.5480006094351315 0
1.288091471023987 0.5023621380309767 0
1.31870416516002 0.540960474043541 0
1.300442205558602 0.5866113877317992 0
1.336910852842581 0.4951911373704601 0
1.367510974232474 0.5338238125609345 0
1.385711011541831 0.4879862440859427 0
1.416318962086156 0.5266645463085131 0
1.434518849868267 0.480814189667655 0
1.354955575942247 0.449385823889889 0
1.465122861077473 0.5194966514366273 0
1.44691921551081 0.5653297100242302 0
1.483337559407126 0.4736439390260104 0
1.495701091711445 0.5581773160330767 0
1.477518537945374 0.603978259748069 0
1.526265168885754 0.5968441469997992 0
1.508091120906343 0.6426195207666947 0
1.556815901379889 0.635475984248016 0
1.574995755134726 0.5897173596129549 0
1.538639039295716 0.6812500419346335 0
1.489886848721694 0.6883693530345411 0
1.520456317771698 0.7270171515897212 0
1.471675084560046 0.7341582533156201 0
1.502273163955523 0.7728279241216152 0
1.453489086916375 0.7800071014681165 0
1.484082267557093 0.8186486337617134 0
1.435280406883914 0.825866605721255 0
1.465878651162286 0.8645266627553883 0
1.417039144883196 0.8717536437363365 0
1.386381674563737 0.8330089197864607 0
1.368119956882099 0.8789474002831323 0
1.33741907024617 0.8401337787239318 0
1.398819781016108 0.9176465317578045 0
1.319145706215087 0.8861488818067373 0
1.288416882437349 0.8472911698935408 0
1.605539427691376 0.6283472969829162 0
1.623712570349181 0.5826153788396269 0
1.532885197649551 0.811368352364355 0
1.270272137998335 0.8932423498421282 0
1.239409371562472 0.8544583756322535 0
1.257694059791537 0.8084123219822712 0
1.208657720151337 0.8155845120746188 0
1.569210902191171 0.7197947969313138 0
1.044395424430554 0.5379745258904914 0
1.300938180013275 0.9320499721060269 0
1.452710466980469 0.434934694882767 0
1.501594527869645 0.4277704117103882 0
1.470922754221482 0.389018161319468 0
1.519856723120797 0.3818470441582396 0
1.489147238508587 0.3430488879727101 0
1.538095442412545 0.3358702774328149 0
1.568780685456473 0.3746944375912988 0
1.587062106724503 0.3287157381860432 0
1.617735207774856 0.3675237148795779 0
1.63602157031247 0.3215565346357658 0
1.507402150851457 0.2970223552149832 0
1.458388756466627 0.3042270603573749 0
1.666685988225413 0.3603517851551635 0
1.684974533098074 0.3143898703869422 0
1.654329840225027 0.2755755058524813 0
1.703280842206235 0.2683865241758064 0
1.476666100659508 0.2581411923806987 0
1.427575947573089 0.2653619377813311 0
1.422828862632818 0.7411879728250116 0
1.226985441529727 0.769542357556712 0
1.177943175478028 0.7766946736178231 0
1.715666618898736 0.3531187915419414 0
1.69736270689525 0.3990923872639002 0
1.654241110032184 0.6212006986037426 0
1.672406725120148 0.5754924991335434 0
1.159604183505092 0.8227597875343613 0
1.128872285898638 0.7838470865153415 0
1.147254293236891 0.7378053097650455 0
1.098170362776592 0.744933126154201 0
1.672609166033991 0.2295293436343083 0
1.721615415768595 0.2223631640956717 0
1.752319126090208 0.2612371586543675 0
1.770629973889344 0.2152416050408966 0
1.221234035628977 0.9002239384997021 0
1.116524143579755 0.698926294212699 0
1.067463061247048 0.7060440298136833 0
1.445862726266407 0.2192294183197205 0
1.396755643454931 0.2264627604478905 0
1.378478815375139 0.2725948296956927 0
1.347657995702593 0.2337078337063402 0
1.329394721754459 0.2798303326768236 0
1.2985876924889 0.2409704972819497 0
1.280334932435385 0.2870510277159109 0
1.249549437856368 0.2482259534438098 0
1.494999702672999 0.2120102285136372 0
1.231677909434284 0.2945843449848357 0
1.20081514108489 0.2556921439484667 0
1.110514529852838 0.8299476668430563 0
1.218831323605658 0.2094758032645634 0
1.599475958664353 0.4134744164963758 0
1.746291315984602 0.3918712067607601 0
1.365924926147193 0.1875538461863821 0
1.099042127797138 0.4007424435001523 0
1.049129884066784 0.7520700421140398 0
1.018427462285459 0.7131756912586305 0
1.728005964158074 0.4377440343205724 0
1.275979362088452 0.7623789861215863 0
1.428741485239236 0.6111480800637327 0
1.24530130039004 0.7235384116666653 0
1.26246205337039 0.3333668210357328 0
1.294256544804198 0.7163847937734591 0
1.690880312602587 0.1834409059664732 0
1.641841856176973 0.1906376161256321 0
1.703045273114847 0.613966134358503 0
1.684779426974019 0.6597575088839311 0
1.721084374820689 0.5683501184756241 0
1.169802319917377 0.2166935967577563 0
1.151639946060103 0.2626900972427303 0
1.801318254152427 0.2540514458051967 0
1.819599540244635 0.2081183208711697 0
1.464162576520311 0.173046303775633 0
1.512466978477769 0.1665210482611939 0
1.000722028998384 0.7587033262266144 0
0.9691573965762533 0.7205089177843915 0
0.9876834621372895 0.6743661377210692 0
1.593275821254593 0.5439459904452804 0
1.360195870698122 0.318690543206347 0
1.776906294387224 0.4305823660367469 0
1.795390116905958 0.3845564020160456 0
1.147775132252832 0.3935926517888854 0
1.086278648806735 0.660110346307951 0
1.135226827439705 0.6530157385484694 0
1.18818522569068 0.1717188647341391 0
1.237022592969058 0.1633903230922771 0
1.733560842117356 0.6525261225288067 0
1.788971872024586 0.1692736407063815 0
1.837947665295526 0.1621490675829858 0
0.9927589581188689 0.5454051006855594 0
1.715279882644368 0.6983203083882776 0
0.9383748880661856 0.681756319408036 0
1.139060617110101 0.1779964483386771 0
1.660173515758221 0.1444816360713201 0
1.850198399710129 0.2469343335790486 0
1.758410566401352 0.4764555166442795 0
1.690820067663604 0.5296152599148001 0
1.807408800096814 0.4692637411070644 0
1.789161699475861 0.5150815458796799 0
1.831969037211615 0.2927937358815306 0
0.9569884918183371 0.6355951571603495 0
1.666617010078842 0.705461755828497 0
1.697108522451655 0.7440312115514943 0
1.32494850419733 0.7552346740026504 0
1.34318171334808 0.7092503176796284 0
1.532178596429625 0.466497961770998 0
1.709250710305982 0.1373372338098776 0
1.648466972181327 0.7511618762505801 0
1.678959685606552 0.7897304639994502 0
1.630312529599474 0.7968609085091002 0
1.66081080801592 0.8354356381176823 0
1.031694255189479 0.7974053266449976 0
1.141281918933541 0.8689016698785652 0
1.09213344517132 0.8761097144326551 0
1.122887974607189 0.9148550177960537 0
1.422005495069359 0.3962420935254296 0
1.679017387721106 0.4449460747533205 0
1.612174610122734 0.8425750126353108 0
1.642568710019154 0.8811106293778753 0
1.59399764765461 0.8882857332060513 0
1.624395377449561 0.926831318013704 0
1.57584822209119 0.9340245002836742 0
1.117213305089129 0.3549575354954191 0
1.26359156723466 0.6776564015804263 0
1.543955010511662 0.2049793255943816 0
1.562047742327355 0.1600169158649892 0
1.068640649642659 0.3622217799782448 0
1.025034846964778 0.5832219715065892 0
1.074744403430433 0.5760366303895521 0
1.085639809860739 0.3137086265934818 0
1.481355706736923 0.1280748025585731 0
1.432372386813668 0.1339685037429101 0
1.761749425910945 0.6903421262742439 0
0.9519444206344148 0.7673687901284946 0
1.161007384923481 0.1255742860544604 0
1.110125723683732 0.1389206169274553 0
0.9102342841420921 0.6434724295602683 0
0.8828824922109072 0.6932460691234072 0
1.604990792463204 0.9720817765918995 0
1.557467892698426 0.9796895472987065 0
1.585133052821721 1.017297515329051 0
1.538643806422348 1.02523141012967 0
1.508902454752816 0.9868807959089332 0
1.490533323589698 1.032615447230731 0
1.52083760122958 1.071187152936917 0
1.472367373826658 1.078497981536152 0
1.441787453439556 1.03977788639283 0
1.423554048177579 1.085733786522275 0
1.392858194668664 1.046918742513806 0
1.37458372368013 1.092961038993988 0
1.40568136286468 1.131508893313259 0
1.343817353229842 1.054079708592095 0
1.325513455528628 1.100200234955922 0
1.294700675071279 1.06125674394682 0
1.503016047339945 1.117178766409958 0
1.362172223592501 1.008027093324391 0
1.276542672442031 1.107524027446688 0
1.246020501849423 1.068303526990253 0
1.263990126158564 1.02242647146631 0
1.215061649096465 1.029204639102147 0
1.807416137733773 0.124009355853136 0
1.214656395879657 0.6847226411054834 0
1.545350421749427 0.8956190673038167 0
1.165918470710803 0.3478461690680473 0
1.196216777394312 0.386636746332926 0
1.232954919999939 0.6390321440222387 0
1.233338761712389 0.9837053122634667 0
1.183273242057018 0.991826360601075 0
1.307580497898988 1.144546753367866 0
1.680355808766392 0.09900746682428754 0
1.856638257864214 0.1183267254276674 0
1.125473753467015 0.09303786996718209 0
1.727598630670774 0.7825891545040646 0
1.261232679351175 1.150893412606173 0
1.691318288109948 0.874002870220259 0
1.779506968750459 0.6441707834095809 0
1.632613896752079 0.1084200475035971 0
1.090105394089912 0.185114919415932 0
1.73334631228473 0.0844662892266191 0
1.655941631418573 0.9663101389930688 0
1.078682849230945 0.922510365682729 0
1.049777746370826 0.8860181591927336 0
1.104589151631273 0.9613702829909496 0
1.810965046071109 0.6824658404162989 0
1.885264390806146 0.1545598420444873 0
1.827769499847418 0.07679107591606274 0
1.904005333333834 0.1125115099390956 0
0.92651126068227 0.5967194625730224 0
1.88826846745945 0.2883204671027008 0
1.862552198674332 0.3315035453439792 0
1.899961703778075 0.2371390661081213 0
1.16384144570437 1.037790829923385 0
1.036812870402047 0.3191632753664116 0
1.839778857711146 0.5074931588058974 0
1.820370353074562 0.5533480134903664 0
0.9068094239343711 0.5137011943355821 0
0.9305459785467523 0.467832911562779 0
1.018488388592635 0.2265859386866624 0
1.051901303151065 0.269025452277538 0
1.035561018515463 0.1250131795732456 0
0.8491017720403067 0.6024251021860321 0
0.9587496398174937 0.5078971467827023 0
1.696831495518713 0.05198191531327514 0
1.452767847314377 0.08823641268801648 0
1.402605880785698 0.09334945314651677 0
1.375700978922926 0.04855147740473216 0
1.352409844500705 0.09647632513066906 0
1.7706329664454 0.5608423222240854 0
1.102146110577886 0.2689126544016163 0
1.798901512586206 0.5974646078210556 0
1.551290815167418 1.109385153671946 0
1.533186006554018 1.154951240642575 0
1.484902014882384 1.162935118889409 0
1.601682257863473 1.099540359528464 0
1.514280675926925 1.200068896496551 0
1.466289836362794 1.20970627743897 0
1.445096105680276 1.254748752751425 0
1.416790501627587 1.215242820601795 0
1.39576990358474 1.255127301880829 0
1.37054603301619 1.217797090090498 0
1.325083796556721 0.05187126222773918 0
1.294507111164958 0.09963648513448593 0
1.245307382624987 0.09005898609443957 0
1.331276302514291 0.1431136157671408 0
1.642990232530535 1.060386865914089 0
1.739632559779501 0.5224478890434806 0
1.813716386241133 0.3386296248089181 0
1.844265948444162 0.3770969024551543 0
1.889116737213785 0.3704265922406721 0
1.826147716621472 0.42323899987077 0
1.224253813538292 0.04504518356511801 0
1.197018626328959 0.08809221923470861 0
1.76473292370592 0.3458315163730775 0
1.183969346050036 0.6459818153175605 0
0.8260036963431224 0.7649566439989846 0
0.8742064999042062 0.7520179854041946 0
0.8334580074997101 0.7162510893551982 0
0.8964934793802923 0.8358683332186893 0
0.9424436832921934 0.8204930068773173 0
0.9769417357602943 0.857067970544498 0
0.9655136764949127 0.907487726761823 0
0.9997839729035383 0.9441475346320691 0
1.355668222801537 0.7941288541434652 0
1.321110533597506 1.259933493902349 0
1.853875372723089 0.5977645053610168 0
1.475000000000001 0.04359109009904652 0
1.037088338670033 0.667242113988385 0
1.373884526964201 0.7481303406665691 0
1.392189349594193 0.7023420324961612 0
1.36159799458182 0.6635659615862537 0
1.311171485813903 0.3259376089370226 0
1.29298200387834 0.3720098234345864 0
1.3420197378988 0.3647432929574266 0
1.323529938924999 0.4107349083677032 0
1.275054457792381 0.4180151612393427 0
1.391185926607087 0.3574951051507446 0
1.075983772679864 1.005213953144108 0
1.144321003221366 1.083108897438365 0
1.441125838708772 0.6954271158278538 0
1.575047376331813 0.04020811358870172 0
1.551929248871388 0.08025003010758867 0
1.867293627296949 0.200040924105671 0
1.125704394314883 0.04452201022262452 0
1.306695137889795 0.8012500756252086 0
1.40934639815831 0.311441538709004 0
1.648397926844745 0.4062712388417776 0
1.630081620742793 0.4521775981785492 0
1.581155651996858 0.4593540746817452 0
1.611604626129314 0.4980888529539286 0
1.617956431925002 0.7125933238871924 0
1.312568675635421 0.6705983158359077 0
1.581639128949484 0.8040236174141512 0
1.708140694058875 0.8277856665208859 0
1.751734730267831 0.6062648719815886 0
1.550507023922958 0.4206063910681742 0
1.513918619052161 0.51234789922678 0
1.16566369375242 0.6918503760138925 0
1.153633404536328 0.6072315446350103 0
1.745733688334985 0.7369145005194954 0
1.398175352400107 0.5724530245671202 0
1.349351422134446 0.5794975307215879 0
1.411174148990311 1.00092504308546 0
1.562763659129122 0.5052166796183266 0
1.313055584650275 1.015219633626509 0
1.5444866858613 0.5510415653227029 0
1.196300716711127 0.7306922949542702 0
1.525720328618073 0.2509742312132104 0
1.574695950369547 0.2438902128528775 0
1.587378922827456 0.6740613245801403 0
0.9191631266426119 0.7308983563867071 0
1.447694787902352 0.9104239655038596 0
1.49656684924169 0.9030424825751213 0
1.093119389235089 0.5305982052874255 0
1.636085388254813 0.66690365146107 0
1.315452553377113 0.1919306221687879 0
1.383272033175373 0.1391283801817469 0
1.454309247612962 1.124362029709828 0
1.734024750808938 0.3071491288546045 0
1.739949481250468 0.1763481467409098 0
1.190339638518916 0.8616452898421832 0
1.17814637607091 0.4323187102210184 0
1.349876507916883 0.9247762276904177 0
1.403871147572577 0.4421504930767423 0
0.9734586599499815 0.5901000355418002 0
1.460050818167383 0.9939633458298467 0
1.356693910863326 1.138132489074758 0
0.7932012235640865 0.6823007305662929 0
1.415042858290683 0.1803085371168629 0
1.404588796793764 0.7870549657684798 0
1.556388000216721 0.2898760288020508 0
1.440166094838575 0.3502454745057885 0
1.599766077476332 0.7583295788868948 0
1.079969105684962 0.7908903660962947 0
1.134335909489621 0.3084369658318986 0
1.050449362035585 0.4080179759357596 0
1.78301341303504 0.2999487683962824 0
1.857834345994978 0.4608939174569602 0
1.005904724025682 0.6284573073799116 0
1.266820787449091 0.1996744593144409 0
1.063800766757754 0.8365872251933937 0
1.459357013554682 0.6497186334191416 0
1.551010500011537 0.7655429503290311 0
1.172000501461115 0.9074355229280173 0
1.605378193961792 0.282734878764073 0
1.642050641708834 0.5367731292190661 0
1.759366189386403 0.1300541623662221 0
1.660556767405946 0.4908311031934575 0
1.563503654143453 0.8498033120769778 0
1.372927970335845 0.4034586194946558 0
1.709509802173529 0.4835911390248219 0
1.514711173583917 0.857168085139562 0
1.623643648441526 0.2367180657916938 0
1.076057135607035 0.03794113986174073 0
1.119217208372746 0.2219181023196473 0
1.306253376497412 0.456692525919186 0
1.257354143100545 0.4638327627957051 0
1.4362801888546 1.170131557713055 0
1.41054403085901 0.656718546112607 0
1.593006883881828 0.1979408375207907 0
1.380004717325666 0.6180801027467777 0
1.52710114529763 0.9413242710186289 0
0.988621768544347 0.3284235297700591 0
1.202587173268586 0.6003896438029138 0
1.251455174448171 0.5935099122618285 0
1.281974107970618 0.6320833254418006 0
1.33099941904272 0.6250597025248629 0
1.612456496121592 0.1527607351834997 0
1.672607033770163 0.919499860640779 0
1.478366484011826 0.9486054715424805 0
1.22664057319337 0.4252794204484165 0
1.17221977553109 0.5618783883164289 0
1.429544280043172 0.9557742848212266 0
1.019673849172359 0.3680458222700121 0
1.123553429498556 0.568803276698792 0
1.244579455981317 0.379412604236772 0
1.380593368390429 0.9629108655293446 0
1.214071734541909 0.3408518767713712 0
1.183185460292307 0.3019187746551883 0
1.331545646556649 0.9700535395640815 0
1.105034897871624 0.6144161180048067 0
1.055680976628214 0.6215807479295326 0
1.130132939368743 1.002357509620218 0
1.282496138898013 0.9772008524625789 0
1.252077621284581 0.9386685172308534 0
1.784868843496437 0.8130398910836045 0
1.730761568281823 0.8999310898600794 0
1.891262624119485 0.4973187530437546 0
1.95160644545222 0.1175883850523145 0
1.946686137654028 0.2169608377793618 0
1.228697845598821 1.113814591133416 0
1.93992705931324 0.2642026521989164 0
1.874299867335253 0.4147016610719342 0
1.20265306973257 0.9454225379161174 0
1.282167594887338 0.1542379783840813 0
1.152589479809651 0.9538778719754051 0
0.9079388928728453 0.7865824468356312 0
1.566990413645044 1.062504596547499 0
1.387305927199027 1.175939882057663 0
1.198042590707686 1.074270722908656 0
1.466851503832518 1.297229509696728 0
1.080429989578334 0.1066590993021208 0
1.339763202376791 1.180148122371798 0
1.500907669817843 0.08370390425982592 0
1.826386052107855 0.7248027001288615 0
0.9361280574853372 0.5517769301698233 0
1.391300291068119 1.332620681540112 0
1.928261180649688 0.03755398591533542 0
1.699142893285693 0.9894170658473569 0
1.780893597146618 0.09225907196800849 0
1.919126170615721 0.4041925223339657 0
0.9863205163877236 0.8045138581986389 0
1.215193486436476 1.158595027346591 0
1.580875938773581 0.1169359733298184 0
1.062548862481097 0.2201008977611718 0
0.8646284560488972 0.6464138720581943 0
1.559679832961669 1.19182533109973 0
1.210010914357945 0.1293325988712709 0
1.530124103446566 0.1229216137328772 0
1.912482003698244 0.1866800545021323 0
1.249770790473048 1.194130251585195 0
1.019312473985063 0.8472118044562806 0
1.825867869265637 0.03321336451665741 0
1.628061441032004 1.01156330381897 0
1.928953497594997 0.3583793973543494 0
1.415962880308641 1.294116193165501 0
1.069478001292287 0.1484540183781489 0
1.604153462270685 0.0741810154041663 0
1.293043837466566 1.185005493546753 0
1.73480509929066 0.03764029347432405 0
1.007990519925993 0.8992448682242822 0
1.036541042540306 0.03720598610672263 0
1.327237757473198 1.220703569410261 0
1.655127595563618 0.06513943335730729 0
0.7573438645274833 0.7066264541838523 0
0.8388327235588685 0.6756352263716852 0
1.876816303509594 0.08555817925492688 0
0.8888238183250661 0.6092706411441625 0
1.900868119792918 0.3326135246391718 0
1.53883046074536 1.231595956121051 0
1.785036780523653 0.7289465041660179 0
1.604354948365727 1.052385987688946 0
1.413723769562877 1.364104561208469 0
1.964221249789569 0.03508607853653919 0
1.921862200463924 0.1453451031873203 0
1.357855446530654 1.254529047432252 0
1.159499000354933 0.07832031644348048 0
1.039838424168652 0.931662148100064 0
1.252124005671904 0.1274315858901807 0
1.764235660039024 0.7730950325325995 0
1.744947157149255 0.8181177421772892 0
1.849010506920463 0.6872964747462744 0
1.816713347222051 0.6330250176403864 0
1.092899391922077 0.07124812390196186 0
1.918232721701175 0.07732185336543021 0
1.724855139910595 0.8591907170320676 0
1.668226589286781 0.0299888701087089 0
1.066529847061606 0.9597710319208199 0
$EndNodes
$Elements
5 1232 1 1232
1 1 1 16
1 1 5 
2 5 6 
3 6 7 
4 7 8 
5 8 9 
6 9 10 
7 10 11 
8 11 12 
9 12 13 
10 13 14 
11 14 15 
12 15 16 
13 16 17 
14 17 18 
15 18 19 
16 19 2 
1 2 1 20
17 2 20 
18 20 21 
19 21 22 
20 22 23 
21 23 24 
22 24 25 
23 25 26 
24 26 27 
25 27 28 
26 28 29 
27 29 30 
28 30 31 
29 31 32 
30 32 33 
31 33 34 
32 34 35 
33 35 36 
34 36 37 
35 37 38 
36 38 3 
1 3 1 32
37 3 39 
38 39 40 
39 40 41 
40 41 42 
41 42 43 
42 43 44 
43 44 45 
44 45 46 
45 46 47 
46 47 48 
47 48 49 
48 49 50 
49 50 51 
50 51 52 
51 52 53 
52 53 54 
53 54 55 
54 55 56 
55 56 57 
56 57 58 
57 58 59 
58 59 60 
59 60 61 
60 61 62 
61 62 63 
62 63 64 
63 64 65 
64 65 66 
65 66 67 
66 67 68 
67 68 69 
68 69 4 
1 4 1 20
69 4 70 
70 70 71 
71 71 72 
72 72 73 
73 73 74 
74 74 75 
75 75 76 
76 76 77 
77 77 78 
78 78 79 
79 79 80 
80 80 81 
81 81 82 
82 82 83 
83 83 84 
84 84 85 
85 85 86 
86 86 87 
87 87 88 
88 88 1 
2 1 2 1144
89 45 46 394 
90 355 528 546 
91 528 116 546 
92 373 310 379 
93 416 318 417 
94 117 566 585 
95 399 117 585 
96 369 103 551 
97 105 359 569 
98 359 105 589 
99 389 514 574 
100 107 395 396 
101 499 475 554 
102 484 270 565 
103 82 83 401 
104 96 373 379 
105 318 416 470 
106 402 100 403 
107 57 58 425 
108 394 46 405 
109 358 106 574 
110 115 374 375 
111 371 369 551 
112 386 82 401 
113 360 116 528 
114 102 45 394 
115 127 125 382 
116 379 310 389 
117 475 404 554 
118 116 360 568 
119 270 382 565 
120 401 100 402 
121 106 358 586 
122 107 396 397 
123 363 437 542 
124 379 389 574 
125 581 420 590 
126 81 82 386 
127 360 94 568 
128 362 581 590 
129 99 368 565 
130 115 375 425 
131 94 360 583 
132 374 115 547 
133 234 404 475 
134 270 127 382 
135 125 377 382 
136 83 100 401 
137 470 416 556 
138 120 417 487 
139 90 57 425 
140 58 115 425 
141 314 470 556 
142 497 374 547 
143 542 348 555 
144 366 105 569 
145 395 107 599 
146 405 94 583 
147 266 499 554 
148 364 90 612 
149 90 364 611 
150 306 573 578 
151 425 390 612 
152 92 81 386 
153 105 366 582 
154 368 99 597 
155 405 583 601 
156 404 234 476 
157 385 92 386 
158 402 403 608 
159 372 112 438 
160 373 96 522 
161 587 357 593 
162 403 412 577 
163 384 92 385 
164 417 318 595 
165 366 118 582 
166 554 402 608 
167 98 587 593 
168 90 425 612 
169 312 476 488 
170 412 315 577 
171 118 366 596 
172 315 412 606 
173 514 358 574 
174 487 417 595 
175 112 372 542 
176 419 314 556 
177 437 112 542 
178 375 390 425 
179 437 363 617 
180 125 89 377 
181 363 542 555 
182 368 484 565 
183 378 96 379 
184 9 96 378 
185 84 85 411 
186 119 561 613 
187 513 119 613 
188 372 438 559 
189 372 348 542 
190 522 123 533 
191 102 391 392 
192 573 441 578 
193 572 33 580 
194 314 419 571 
195 256 272 470 
196 103 369 598 
197 403 577 608 
198 476 234 488 
199 403 100 411 
200 312 385 476 
201 373 522 533 
202 397 396 398 
203 376 99 565 
204 419 420 571 
205 85 111 411 
206 100 84 411 
207 389 310 494 
208 403 411 412 
209 119 380 561 
210 250 389 494 
211 95 497 547 
212 438 97 559 
213 123 89 124 
214 377 376 382 
215 106 378 574 
216 498 427 541 
217 385 386 387 
218 272 318 470 
219 46 47 405 
220 47 94 405 
221 314 256 470 
222 308 484 498 
223 549 371 551 
224 410 497 552 
225 229 250 538 
226 308 270 484 
227 12 89 123 
228 89 13 377 
229 92 384 426 
230 8 9 378 
231 279 276 406 
232 14 376 377 
233 15 99 376 
234 381 109 575 
235 99 16 381 
236 18 19 487 
237 7 106 380 
238 246 267 454 
239 248 388 406 
240 571 420 581 
241 11 123 522 
242 17 109 381 
243 119 6 380 
244 388 279 406 
245 96 10 522 
246 385 387 476 
247 356 390 454 
248 391 102 394 
249 497 95 552 
250 388 248 454 
251 433 434 509 
252 507 277 510 
253 387 404 476 
254 260 278 410 
255 407 261 408 
256 308 498 541 
257 354 572 580 
258 362 590 607 
259 434 147 509 
260 267 356 454 
261 408 261 410 
262 204 233 413 
263 248 246 454 
264 261 260 410 
265 389 250 514 
266 261 407 413 
267 397 398 399 
268 277 406 510 
269 124 89 125 
270 250 494 538 
271 406 276 510 
272 428 423 489 
273 428 201 429 
274 250 249 514 
275 387 386 401 
276 233 261 413 
277 414 264 457 
278 429 201 439 
279 515 435 516 
280 297 507 510 
281 264 414 458 
282 258 449 463 
283 264 217 457 
284 523 346 524 
285 79 80 426 
286 390 388 454 
287 445 436 491 
288 415 110 416 
289 214 478 496 
290 201 428 489 
291 434 435 515 
292 411 111 412 
293 27 93 422 
294 421 26 422 
295 22 110 415 
296 204 413 478 
297 415 416 417 
298 436 296 491 
299 449 448 463 
300 418 101 419 
301 25 26 421 
302 410 278 497 
303 284 423 428 
304 165 472 511 
305 113 79 426 
306 297 446 447 
307 24 101 418 
308 478 413 496 
309 80 92 426 
310 217 210 457 
311 297 447 507 
312 433 432 434 
313 104 35 424 
314 120 415 417 
315 26 27 422 
316 423 284 444 
317 431 432 433 
318 448 286 463 
319 365 269 442 
320 205 195 446 
321 120 21 415 
322 218 263 427 
323 371 549 579 
324 186 184 455 
325 387 401 402 
326 210 203 466 
327 286 448 455 
328 431 242 432 
329 436 433 509 
330 505 277 507 
331 160 158 439 
332 225 242 431 
333 20 21 120 
334 273 316 358 
335 297 205 446 
336 110 23 418 
337 201 160 439 
338 558 486 562 
339 93 28 437 
340 472 343 511 
341 36 117 424 
342 398 396 517 
343 137 523 524 
344 112 30 438 
345 161 175 502 
346 22 23 110 
347 36 37 117 
348 71 72 118 
349 259 436 445 
350 98 77 440 
351 387 402 404 
352 221 259 445 
353 317 281 368 
354 434 432 435 
355 85 86 111 
356 184 286 455 
357 275 280 369 
358 172 169 444 
359 419 101 420 
360 223 225 431 
361 457 210 466 
362 351 269 365 
363 252 251 275 
364 101 25 421 
365 272 257 281 
366 124 125 126 
367 285 430 451 
368 215 214 251 
369 24 25 101 
370 195 191 446 
371 175 452 502 
372 237 218 427 
373 369 280 370 
374 189 186 455 
375 275 251 280 
376 440 113 441 
377 218 217 263 
378 351 365 367 
379 229 249 250 
380 225 226 228 
381 325 335 391 
382 256 237 257 
383 21 22 415 
384 169 423 444 
385 228 226 229 
386 272 281 317 
387 430 429 518 
388 83 84 100 
389 180 450 469 
390 243 285 451 
391 275 371 442 
392 34 35 104 
393 73 74 105 
394 370 408 409 
395 178 172 444 
396 204 205 233 
397 204 195 205 
398 353 289 453 
399 29 112 437 
400 233 205 238 
401 391 335 392 
402 233 238 260 
403 275 369 371 
404 257 237 427 
405 191 189 232 
406 260 276 278 
407 31 97 438 
408 259 431 433 
409 259 223 431 
410 446 232 447 
411 260 238 276 
412 256 257 272 
413 215 251 252 
414 211 210 217 
415 23 24 418 
416 263 217 264 
417 278 276 279 
418 221 223 259 
419 202 178 239 
420 78 113 440 
421 449 505 507 
422 241 239 243 
423 278 279 374 
424 191 232 446 
425 157 180 469 
426 225 224 226 
427 447 448 449 
428 27 28 93 
429 196 195 204 
430 304 243 451 
431 29 30 112 
432 239 178 444 
433 313 271 459 
434 223 224 225 
435 211 217 218 
436 35 36 424 
437 225 228 242 
438 31 32 97 
439 76 77 98 
440 235 307 495 
441 273 315 316 
442 202 239 241 
443 243 284 285 
444 332 336 464 
445 374 279 375 
446 252 275 442 
447 213 198 214 
448 111 86 443 
449 200 221 445 
450 285 428 429 
451 78 79 113 
452 165 471 472 
453 241 243 304 
454 284 239 444 
455 463 456 465 
456 342 304 346 
457 194 445 491 
458 447 232 448 
459 80 81 92 
460 307 310 373 
461 258 463 465 
462 148 151 456 
463 370 407 408 
464 243 239 284 
465 233 260 261 
466 213 214 215 
467 192 191 195 
468 285 429 430 
469 301 319 360 
470 285 284 428 
471 221 222 223 
472 209 203 210 
473 289 291 453 
474 28 29 437 
475 161 163 175 
476 291 355 453 
477 30 31 438 
478 291 299 355 
479 246 247 267 
480 203 202 466 
481 246 206 247 
482 392 393 395 
483 77 78 440 
484 259 433 436 
485 173 469 474 
486 413 407 496 
487 148 145 149 
488 214 198 478 
489 375 388 390 
490 271 283 459 
491 267 271 313 
492 190 189 191 
493 174 173 206 
494 153 154 155 
495 283 289 353 
496 151 152 153 
497 149 145 460 
498 156 155 173 
499 200 220 221 
500 86 87 443 
501 342 346 414 
502 179 178 202 
503 267 247 271 
504 147 434 515 
505 283 353 459 
506 229 231 249 
507 238 205 297 
508 356 313 364 
509 148 149 151 
510 249 265 273 
511 194 200 445 
512 267 313 356 
513 207 206 246 
514 235 303 307 
515 151 149 152 
516 269 252 442 
517 199 193 467 
518 153 155 156 
519 153 152 154 
520 145 143 460 
521 155 154 157 
522 196 204 478 
523 156 173 174 
524 236 218 237 
525 329 327 462 
526 177 172 178 
527 255 237 256 
528 107 397 560 
529 146 145 148 
530 340 339 347 
531 241 304 342 
532 423 167 489 
533 456 151 465 
534 223 222 224 
535 150 148 456 
536 169 167 423 
537 370 280 407 
538 192 195 196 
539 375 279 388 
540 449 258 505 
541 157 159 180 
542 257 427 498 
543 209 210 211 
544 254 227 305 
545 334 332 464 
546 240 149 460 
547 336 329 462 
548 286 150 456 
549 188 186 189 
550 144 143 145 
551 207 246 248 
552 153 156 465 
553 271 282 283 
554 174 206 207 
555 155 157 469 
556 338 334 339 
557 520 461 526 
558 184 150 286 
559 469 450 474 
560 359 287 506 
561 319 320 321 
562 179 202 203 
563 283 288 289 
564 227 199 467 
565 51 52 91 
566 56 57 90 
567 53 54 114 
568 232 189 455 
569 12 13 89 
570 289 290 291 
571 221 220 222 
572 291 298 299 
573 305 467 468 
574 324 323 485 
575 143 140 461 
576 142 140 143 
577 460 143 461 
578 146 148 150 
579 301 302 319 
580 307 303 310 
581 299 300 301 
582 251 214 496 
583 190 191 192 
584 271 247 282 
585 206 173 474 
586 452 492 502 
587 328 331 477 
588 177 178 179 
589 157 158 159 
590 151 153 465 
591 325 326 335 
592 448 232 455 
593 152 149 240 
594 430 518 520 
595 126 127 128 
596 332 329 336 
597 305 227 467 
598 277 248 406 
599 399 398 400 
600 340 347 348 
601 283 282 288 
602 49 50 116 
603 58 59 115 
604 339 334 464 
605 165 166 471 
606 254 305 306 
607 131 130 132 
608 173 155 469 
609 328 330 331 
610 156 258 465 
611 157 154 158 
612 392 335 393 
613 289 288 290 
614 163 164 165 
615 321 320 322 
616 139 138 140 
617 11 12 123 
618 468 467 490 
619 291 290 298 
620 144 145 146 
621 166 168 170 
622 188 189 190 
623 229 226 231 
624 13 14 377 
625 166 170 471 
626 159 160 161 
627 268 252 269 
628 161 162 163 
629 126 125 127 
630 136 138 139 
631 286 456 463 
632 327 324 485 
633 322 324 325 
634 136 137 138 
635 156 174 258 
636 338 339 340 
637 140 138 141 
638 299 298 300 
639 287 244 479 
640 135 134 136 
641 247 206 474 
642 342 414 457 
643 395 393 396 
644 87 88 513 
645 208 203 209 
646 319 302 320 
647 132 133 134 
648 132 130 133 
649 211 218 236 
650 142 143 144 
651 202 241 466 
652 301 300 302 
653 207 248 277 
654 492 180 502 
655 132 134 135 
656 282 247 474 
657 235 262 303 
658 288 282 450 
659 14 15 376 
660 136 134 137 
661 361 294 362 
662 200 219 220 
663 47 48 94 
664 140 141 461 
665 197 196 198 
666 129 131 235 
667 60 61 95 
668 126 128 129 
669 450 180 492 
670 420 101 421 
671 139 140 142 
672 439 158 501 
673 176 172 177 
674 183 150 184 
675 129 128 130 
676 194 199 200 
677 241 342 466 
678 298 290 452 
679 171 169 172 
680 236 237 255 
681 312 384 385 
682 343 508 511 
683 407 280 496 
684 484 281 498 
685 368 281 484 
686 224 222 475 
687 168 167 169 
688 130 128 473 
689 159 158 160 
690 187 193 194 
691 146 150 183 
692 162 160 201 
693 253 311 312 
694 171 176 182 
695 181 127 270 
696 462 327 485 
697 450 282 474 
698 274 244 287 
699 235 131 262 
700 212 198 213 
701 44 45 102 
702 63 64 103 
703 124 126 495 
704 183 185 296 
705 179 203 208 
706 249 231 265 
707 15 16 99 
708 185 184 186 
709 302 300 343 
710 322 320 323 
711 278 374 497 
712 9 10 96 
713 161 160 162 
714 342 457 466 
715 192 196 197 
716 187 186 188 
717 222 220 234 
718 129 130 131 
719 341 269 351 
720 316 315 352 
721 344 262 345 
722 170 168 482 
723 273 265 315 
724 166 164 167 
725 142 144 147 
726 215 252 268 
727 165 164 166 
728 230 493 500 
729 253 227 254 
730 272 317 318 
731 181 270 308 
732 208 209 230 
733 163 162 164 
734 181 308 309 
735 198 196 478 
736 350 287 359 
737 208 230 293 
738 219 199 227 
739 128 127 181 
740 176 177 216 
741 159 161 502 
742 166 167 168 
743 255 256 314 
744 168 169 171 
745 171 172 176 
746 340 348 372 
747 293 294 295 
748 295 361 363 
749 303 262 344 
750 333 337 349 
751 200 199 219 
752 331 330 486 
753 212 244 245 
754 337 334 338 
755 194 193 199 
756 183 184 185 
757 312 311 384 
758 220 219 488 
759 185 186 187 
760 276 238 510 
761 274 350 357 
762 133 130 473 
763 187 188 193 
764 7 8 106 
765 177 179 480 
766 293 230 294 
767 216 480 503 
768 253 254 311 
769 219 227 253 
770 131 132 481 
771 274 287 350 
772 197 198 212 
773 335 326 477 
774 325 324 326 
775 188 190 490 
776 295 294 361 
777 322 323 324 
778 427 263 541 
779 152 240 501 
780 213 215 479 
781 333 332 334 
782 212 213 244 
783 288 450 492 
784 171 182 482 
785 144 146 483 
786 132 135 481 
787 281 257 498 
788 139 515 516 
789 158 154 501 
790 183 296 483 
791 452 290 492 
792 245 244 274 
793 216 177 480 
794 106 8 378 
795 236 255 292 
796 222 234 475 
797 128 181 473 
798 230 209 493 
799 231 226 499 
800 310 303 494 
801 209 211 493 
802 280 251 496 
803 467 193 490 
804 330 329 332 
805 290 288 492 
806 493 292 500 
807 226 224 499 
808 362 294 500 
809 328 327 329 
810 249 273 514 
811 41 42 107 
812 66 67 108 
813 162 201 489 
814 326 324 327 
815 333 334 337 
816 146 183 483 
817 234 220 488 
818 211 236 493 
819 349 337 354 
820 187 194 491 
821 393 335 477 
822 193 188 490 
823 179 208 480 
824 147 144 483 
825 253 312 488 
826 326 328 477 
827 303 344 494 
828 167 164 489 
829 326 327 328 
830 268 269 341 
831 16 17 381 
832 296 185 491 
833 350 359 383 
834 480 293 503 
835 168 171 482 
836 345 262 481 
837 219 253 488 
838 330 332 333 
839 228 229 538 
840 154 152 501 
841 208 293 480 
842 328 329 330 
843 224 475 499 
844 262 131 481 
845 244 213 479 
846 6 7 380 
847 129 235 495 
848 333 349 486 
849 265 231 266 
850 215 268 479 
851 181 309 473 
852 236 292 493 
853 258 174 505 
854 164 162 489 
855 452 175 508 
856 468 490 504 
857 185 187 491 
858 266 231 499 
859 207 277 505 
860 508 175 511 
861 180 159 502 
862 341 351 366 
863 126 129 495 
864 330 333 486 
865 192 197 504 
866 163 165 511 
867 490 190 504 
868 294 230 500 
869 5 6 119 
870 17 18 109 
871 39 40 121 
872 68 69 122 
873 190 192 504 
874 174 207 505 
875 293 295 503 
876 298 452 508 
877 242 228 537 
878 343 300 508 
879 102 392 576 
880 414 346 523 
881 296 436 509 
882 460 461 520 
883 447 449 507 
884 136 139 516 
885 287 479 506 
886 123 124 533 
887 306 305 519 
888 346 304 525 
889 212 245 512 
890 142 147 515 
891 504 197 512 
892 343 472 521 
893 361 362 607 
894 323 521 529 
895 307 373 533 
896 544 216 553 
897 300 298 508 
898 141 138 524 
899 238 297 510 
900 430 520 526 
901 525 451 526 
902 479 268 506 
903 537 228 538 
904 301 360 528 
905 396 393 517 
906 109 18 487 
907 355 299 528 
908 268 341 506 
909 147 483 509 
910 302 343 521 
911 323 320 521 
912 483 296 509 
913 263 264 540 
914 477 331 517 
915 468 504 512 
916 175 163 511 
917 141 525 526 
918 273 358 514 
919 306 519 527 
920 501 240 518 
921 512 245 519 
922 274 357 527 
923 443 87 513 
924 139 142 515 
925 135 136 516 
926 197 212 512 
927 432 242 535 
928 429 439 518 
929 439 501 518 
930 458 414 523 
931 393 477 517 
932 240 460 520 
933 10 11 522 
934 468 512 519 
935 451 430 526 
936 305 468 519 
937 521 472 529 
938 137 134 531 
939 304 451 525 
940 320 302 521 
941 518 240 520 
942 138 137 524 
943 141 524 525 
944 524 346 525 
945 263 540 541 
946 472 471 529 
947 461 141 526 
948 519 245 527 
949 408 410 552 
950 345 530 535 
951 347 339 543 
952 245 274 527 
953 345 481 530 
954 416 110 556 
955 550 338 559 
956 124 495 533 
957 135 516 530 
958 458 531 534 
959 299 301 528 
960 473 309 534 
961 529 471 532 
962 391 394 557 
963 485 323 529 
964 535 242 537 
965 523 137 531 
966 516 435 530 
967 176 216 544 
968 118 596 614 
969 418 419 556 
970 471 170 532 
971 337 338 550 
972 532 170 536 
973 458 523 531 
974 495 307 533 
975 485 529 532 
976 325 391 557 
977 534 309 540 
978 134 133 531 
979 481 135 530 
980 367 548 614 
981 295 363 555 
982 530 435 535 
983 331 486 558 
984 170 482 536 
985 347 544 553 
986 567 118 614 
987 321 322 557 
988 536 482 539 
989 462 485 532 
990 462 532 536 
991 531 133 534 
992 435 432 535 
993 133 473 534 
994 336 462 536 
995 344 345 537 
996 400 558 562 
997 344 537 538 
998 336 536 539 
999 464 336 539 
1000 494 344 538 
1001 482 182 539 
1002 264 458 540 
1003 539 182 543 
1004 464 539 543 
1005 345 535 537 
1006 309 308 541 
1007 458 534 540 
1008 347 543 544 
1009 340 372 559 
1010 540 309 541 
1011 339 464 543 
1012 91 52 545 
1013 53 114 545 
1014 52 53 545 
1015 182 176 544 
1016 51 91 546 
1017 50 51 546 
1018 116 50 546 
1019 59 60 547 
1020 97 550 559 
1021 115 59 547 
1022 60 95 547 
1023 65 66 549 
1024 348 347 553 
1025 67 68 548 
1026 64 65 551 
1027 354 337 550 
1028 103 64 551 
1029 66 108 549 
1030 409 408 552 
1031 561 380 586 
1032 108 67 548 
1033 404 402 554 
1034 348 553 555 
1035 68 122 548 
1036 216 503 553 
1037 441 113 563 
1038 553 503 555 
1039 383 359 589 
1040 503 295 555 
1041 37 38 566 
1042 70 71 567 
1043 110 418 556 
1044 543 182 544 
1045 322 325 557 
1046 381 575 597 
1047 548 122 614 
1048 41 107 560 
1049 121 40 560 
1050 318 575 595 
1051 99 381 597 
1052 400 398 558 
1053 65 549 551 
1054 517 331 558 
1055 380 106 586 
1056 97 32 572 
1057 426 384 563 
1058 398 517 558 
1059 359 506 569 
1060 384 311 563 
1061 75 383 589 
1062 341 366 569 
1063 255 314 571 
1064 54 55 564 
1065 338 340 559 
1066 352 315 606 
1067 40 41 560 
1068 316 352 561 
1069 486 349 562 
1070 49 116 568 
1071 94 48 568 
1072 442 371 579 
1073 88 1 591 
1074 1 5 591 
1075 254 306 578 
1076 315 265 577 
1077 550 97 572 
1078 355 546 615 
1079 33 34 580 
1080 118 72 582 
1081 73 105 582 
1082 392 395 576 
1083 2 20 594 
1084 19 2 594 
1085 95 61 570 
1086 360 319 583 
1087 306 527 573 
1088 113 426 563 
1089 362 500 581 
1090 382 376 565 
1091 44 102 576 
1092 114 54 564 
1093 440 441 587 
1094 420 421 590 
1095 74 75 589 
1096 117 37 566 
1097 71 118 567 
1098 369 370 598 
1099 566 121 585 
1100 552 95 570 
1101 357 350 593 
1102 364 313 600 
1103 441 563 578 
1104 366 351 596 
1105 564 55 611 
1106 63 103 584 
1107 356 364 612 
1108 48 49 568 
1109 61 62 570 
1110 93 437 617 
1111 378 379 574 
1112 506 341 569 
1113 56 90 611 
1114 292 255 571 
1115 107 42 599 
1116 38 3 602 
1117 4 70 603 
1118 32 33 572 
1119 354 550 572 
1120 3 39 602 
1121 69 4 603 
1122 316 561 586 
1123 364 564 611 
1124 527 357 573 
1125 114 600 609 
1126 443 352 606 
1127 409 552 570 
1128 318 317 575 
1129 111 443 606 
1130 545 609 610 
1131 564 364 600 
1132 563 311 578 
1133 43 44 576 
1134 576 395 599 
1135 549 108 579 
1136 570 62 584 
1137 292 571 581 
1138 265 266 577 
1139 441 573 587 
1140 311 254 578 
1141 545 114 609 
1142 365 442 579 
1143 409 570 584 
1144 394 405 601 
1145 117 399 605 
1146 562 588 592 
1147 114 564 600 
1148 34 104 580 
1149 579 108 604 
1150 487 19 594 
1151 349 354 588 
1152 121 560 585 
1153 500 292 581 
1154 575 317 597 
1155 72 73 582 
1156 319 321 583 
1157 383 75 616 
1158 562 349 588 
1159 583 321 601 
1160 557 394 601 
1161 397 399 585 
1162 62 63 584 
1163 560 397 585 
1164 365 579 604 
1165 109 487 595 
1166 91 610 615 
1167 98 440 587 
1168 358 316 586 
1169 76 98 616 
1170 43 576 599 
1171 566 38 602 
1172 70 567 603 
1173 91 545 610 
1174 548 367 604 
1175 120 487 594 
1176 584 103 598 
1177 105 74 589 
1178 588 104 592 
1179 513 88 591 
1180 421 422 590 
1181 104 424 592 
1182 20 120 594 
1183 119 513 591 
1184 5 119 591 
1185 400 592 605 
1186 350 383 593 
1187 390 356 612 
1188 590 422 607 
1189 351 367 596 
1190 75 76 616 
1191 546 91 615 
1192 317 368 597 
1193 370 409 598 
1194 400 562 592 
1195 424 117 605 
1196 42 43 599 
1197 313 459 600 
1198 321 557 601 
1199 367 365 604 
1200 422 93 607 
1201 412 111 606 
1202 600 459 609 
1203 352 443 613 
1204 39 121 602 
1205 122 69 603 
1206 399 400 605 
1207 353 453 610 
1208 609 353 610 
1209 459 353 609 
1210 592 424 605 
1211 55 56 611 
1212 610 453 615 
1213 363 361 617 
1214 121 566 602 
1215 567 122 603 
1216 443 513 613 
1217 453 355 615 
1218 108 548 604 
1219 354 580 588 
1220 573 357 587 
1221 266 554 608 
1222 580 104 588 
1223 561 352 613 
1224 575 109 595 
1225 409 584 598 
1226 98 593 616 
1227 577 266 608 
1228 122 567 614 
1229 596 367 614 
1230 361 607 617 
1231 593 383 616 
1232 607 93 617 
$EndElements
