$MeshFormat
4.1 0 8
$EndMeshFormat
$PhysicalNames
6
1 2 "b"
1 3 "r"
1 4 "t"
1 5 "l"
1 6 "quarter_circle"
2 1 "Volume"
$EndPhysicalNames
$Entities
8 8 1 0
1 1 0.5 0 0 
2 1 1 0 0 
3 0.5 1 0 0 
4 0.5 0.75 0 0 
5 0.5956708580912724 0.7309698831278217 0 0 
6 0.6767766952966369 0.6767766952966369 0 0 
7 0.7309698831278217 0.5956708580912724 0 0 
8 0.75 0.5 0 0 
1 0.75 0.5 0 1 0.5 0 1 2 2 8 -1 
2 1 0.5 0 1 1 0 1 3 2 1 -2 
3 0.5 1 0 1 1 0 1 4 2 2 -3 
4 0.5 0.75 0 0.5 1 0 1 5 2 3 -4 
5 0.5 0.7309698831278217 0 0.5956708580912724 0.75 0 1 6 2 4 -5 
6 0.5956708580912724 0.6767766952966369 0 0.6767766952966369 0.7309698831278217 0 1 6 2 5 -6 
7 0.6767766952966369 0.5956708580912724 0 0.7309698831278217 0.6767766952966369 0 1 6 2 6 -7 
8 0.7309698831278217 0.5 0 0.75 0.5956708580912724 0 1 6 2 7 -8 
1 0.5 0.5 0 1 1 0 1 1 8 1 2 3 4 5 6 7 8 
$EndEntities
$Nodes
17 41 1 41
0 1 0 1
1
1 0.5 0
0 2 0 1
2
1 1 0
0 3 0 1
3
0.5 1 0
0 4 0 1
4
0.5 0.75 0
0 5 0 1
5
0.5956708580912724 0.7309698831278217 0
0 6 0 1
6
0.6767766952966369 0.6767766952966369 0
0 7 0 1
7
0.7309698831278217 0.5956708580912724 0
0 8 0 1
8
0.75 0.5 0
1 1 0 2
9
10
0.8333333333333333 0.5 0
0.9166666666666666 0.5 0
1 2 0 4
11
12
13
14
1 0.5999999999999998 0
1 0.6999999999999998 0
1 0.7999999999999998 0
1 0.8999999999999999 0
1 3 0 4
15
16
17
18
0.9000000000000002 1 0
0.8000000000000002 1 0
0.7000000000000002 1 0
0.6000000000000001 1 0
1 4 0 2
19
20
0.5 0.9166666666666667 0
0.5 0.8333333333333334 0
1 5 0 0
1 6 0 0
1 7 0 0
1 8 0 0
2 1 0 21
21
22
23
24
25
26
27
28
29
30
31
32
33
34
35
36
37
38
39
40
41
0.9188086307405375 0.7612479683631532 0
0.7600881694244963 0.9196495521368471 0
0.8749999999999999 0.5721687836487032 0
0.5721687836487032 0.8749999999999999 0
0.6805372330523651 0.7660999316096647 0
0.7657257571788851 0.679392508335563 0
0.769573516213236 0.7699057980433509 0
0.9217642563732311 0.8577306254182606 0
0.6509405724623805 0.9171494444051789 0
0.9170293127771345 0.6511062580250457 0
0.8580671363552574 0.9243937548875867 0
0.7992225316714962 0.5815351909874116 0
0.581725978440212 0.799284894076626 0
0.6419789958489313 0.8403062163889372 0
0.8403062163889374 0.6419789958489316 0
0.7192522894682237 0.8424719315927054 0
0.8418873005121219 0.7243239763044402 0
0.9266700225598165 0.9266700225598161 0
0.9423895438838905 0.5635016516785772 0
0.5630957688463091 0.9426184107177625 0
0.827063042726729 0.8285319438209062 0
$EndNodes
$Elements
9 80 1 80
1 1 1 3
1 8 9 
2 9 10 
3 10 1 
1 2 1 5
4 1 11 
5 11 12 
6 12 13 
7 13 14 
8 14 2 
1 3 1 5
9 2 15 
10 15 16 
11 16 17 
12 17 18 
13 18 3 
1 4 1 3
14 3 19 
15 19 20 
16 20 4 
1 5 1 1
17 4 5 
1 6 1 1
18 5 6 
1 7 1 1
19 6 7 
1 8 1 1
20 7 8 
2 1 2 60
21 25 26 27 
22 25 6 26 
23 37 21 41 
24 22 36 41 
25 27 37 41 
26 33 25 34 
27 26 32 35 
28 5 25 33 
29 26 7 32 
30 36 27 41 
31 21 28 41 
32 31 22 41 
33 12 13 21 
34 16 17 22 
35 21 13 28 
36 13 14 28 
37 11 12 30 
38 17 18 29 
39 6 7 26 
40 5 6 25 
41 15 16 31 
42 22 17 29 
43 12 21 30 
44 9 10 23 
45 19 20 24 
46 16 22 31 
47 7 8 32 
48 4 5 33 
49 24 29 40 
50 30 23 39 
51 14 2 38 
52 2 15 38 
53 18 3 40 
54 1 11 39 
55 25 27 36 
56 27 26 37 
57 29 18 40 
58 11 30 39 
59 8 9 32 
60 20 4 33 
61 30 21 37 
62 22 29 36 
63 10 1 39 
64 3 19 40 
65 29 24 34 
66 23 30 35 
67 35 30 37 
68 29 34 36 
69 15 31 38 
70 9 23 32 
71 24 20 33 
72 28 14 38 
73 31 28 38 
74 32 23 35 
75 24 33 34 
76 19 24 40 
77 23 10 39 
78 28 31 41 
79 34 25 36 
80 26 35 37 
$EndElements
