<?xml version="1.0"?>
<VTKFile type="UnstructuredGrid"  version="0.1"  >
<UnstructuredGrid>
<Piece  NumberOfPoints="141" NumberOfCells="224">
<Points>
<DataArray  type="Float64"  NumberOfComponents="3"  format="ascii">0 0 0  1 0 0  1 1 0  0 1 0  0.75 0.5 0  0.3750000000000001 0.7165063509461097 0  0.3749999999999999 0.2834936490538904 0  0 0.8999999999995836 0  0 0.7999999999999998 0  0 0.7000000000006934 0  0 0.6000000000013869 0  0 0.5000000000020587 0  0 0.4000000000016644 0  0 0.3000000000012483 0  0 0.2000000000008322 0  0 0.100000000000416 0  0.09999999999981467 0 0  0.1999999999995579 0 0  0.2999999999992664 0 0  0.3999999999989749 0 0  0.4999999999986943 0 0  0.5999999999989468 0 0  0.69999999999921 0 0  0.7999999999994734 0 0  0.8999999999997368 0 0  1 0.09999999999981467 0  1 0.1999999999995579 0  1 0.2999999999992664 0  1 0.3999999999989749 0  1 0.4999999999986943 0  1 0.5999999999989468 0  1 0.69999999999921 0  1 0.7999999999994734 0  1 0.8999999999997368 0  0.8999999999995836 1 0  0.7999999999999998 1 0  0.7000000000006934 1 0  0.6000000000013869 1 0  0.5000000000020587 1 0  0.4000000000016644 1 0  0.3000000000012483 1 0  0.2000000000008322 1 0  0.100000000000416 1 0  0.7349231550696919 0.5855050361797567 0  0.691511110440996 0.6606969028253395 0  0.6249999993510345 0.7165063513207901 0  0.5434120439701151 0.7462019383318027 0  0.4565879553710103 0.7462019382156253 0  0.3084888891043004 0.660696902283445 0  0.2650768446431505 0.5855050353907976 0  0.25 0.4999999993223791 0  0.2650768449394766 0.4144949637950532 0  0.3084888893362516 0.3393030974401263 0  0.4565879557527611 0.2537980617170617 0  0.5434120448450099 0.2537980618224648 0  0.6250000005701681 0.2834936493830771 0  0.6915111110647478 0.339303097918019 0  0.7349231552724446 0.4144949643773016 0  0.7086259371231289 0.2582482960201323 0  0.2934120446044775 0.2537980617902357 0  0.2914159439786958 0.7417599571012917 0  0.6966165544832694 0.7588918798227819 0  0.8479731405375693 0.8984792333664032 0  0.08886058496275928 0.8521585050965068 0  0.08660254037880416 0.1500000000006241 0  0.8505835971118657 0.0933197978518811 0  0.9265108004779345 0.7508932008161622 0  0.9272458142177814 0.2492156155438214 0  0.08660254037879478 0.3500000000014563 0  0.08094977419330136 0.6563077798298167 0  0.8238962774931506 0.4428873694984882 0  0.6110999125290688 0.8107744858959973 0  0.361983904721013 0.7949750673637936 0  0.6380098146755813 0.2049743708731505 0  0.3868823891419854 0.1914626327612873 0  0.2755386622609932 0.8321691427772198 0  0.8249724101935327 0.5569298902005159 0  0.4901069623970626 0.1617016084857604 0  0.5095786942689553 0.8385917406623997 0  0.2497365316284538 0.07841660698847359 0  0.6988293866944836 0.8427653550304515 0  0.7783351996799912 0.3393030980337611 0  0.7899132702335903 0.6466370409258186 0  0.2107631469028482 0.7703761282955286 0  0.7239740634788173 0.1655670950915371 0  0.2279956186894465 0.3122103178831221 0  0.1854517380753696 0.5582994991529335 0  0.1702816252336572 0.4712835897903899 0  0.7716845371698696 0.8244380953892854 0  0.2163109657596334 0.2266645465384687 0  0.862006512167234 0.3694682009523159 0  0.8645885610760686 0.6277844787554949 0  0.221664800056103 0.6606969021306355 0  0.789407053347732 0.229323020844085 0  0.5767779475007083 0.9013743649471069 0  0.4203798861166641 0.1002769828833987 0  0.3508578786574879 0.8977092082859368 0  0.6498911664285608 0.1018514013959374 0  0.4482359048622536 0.9121672694325411 0  0.5517152604312172 0.08777679223578644 0  0.8950565898181063 0.5000000001675742 0  0.187553498724213 0.8561122032514897 0  0.096344954781654 0.5502193505708696 0  0.08386313308992518 0.2496844419312267 0  0.07769152167727772 0.7531749386644859 0  0.2876629906313635 0.1623065151347233 0  0.7447478440672759 0.9152779995647633 0  0.1517011030132487 0.07448552463928214 0  0.9275988323350824 0.1527648894491518 0  0.9262727970578897 0.8459092970805756 0  0.1735902182446075 0.3831983063601789 0  0.08119511776618379 0.440634069298818 0  0.754090291358097 0.08462331063005715 0  0.243991673274233 0.9204485602277284 0  0.3407769662527846 0.08874378962798046 0  0.6552425151322694 0.9116987009063864 0  0.851375058613342 0.2896186368374689 0  0.1477735478596522 0.7109408035696498 0  0.85943538516068 0.700879988860459 0  0.1511106403150097 0.2931728097703813 0  0.7970299301422611 0.1525264579774764 0  0.1492167079775811 0.9289602601376639 0  0.5730571999982111 0.1627629543033544 0  0.4269520882274179 0.8371656301869115 0  0.1513836398306937 0.6261749807829783 0  0.1886452577882862 0.1486327586813461 0  0.07301459004772988 0.9264649796565133 0  0.9267949192428435 0.07320508075703633 0  0.07320508075713333 0.07320508075729446 0  0.930904239792032 0.9278575655932431 0  0.8563579220887371 0.7992884290585397 0  0.777586463262857 0.7318053894803704 0  0.9319538144099002 0.3421323750482093 0  0.9215235377673484 0.4256094970752217 0  0.9286856111435933 0.658989757445628 0  0.9215789201468771 0.5743808762434959 0  0.1426375643733759 0.2069170080711501 0  0.1403085184212473 0.7958781043897161 0  0.8599893972095252 0.1991861396432739 0  0.5132111307030907 0.9315202845746969 0  0.4829943716254921 0.06882589731417799 0  </DataArray>
</Points>
<Cells>
<DataArray  type="UInt32"  Name="connectivity"  format="ascii">62 88 106  71 80 115  71 94 115  74 95 114  74 105 114  62 88 130  60 83 92  58 81 93  87 102 111  39 40 96  21 22 97  39 96 98  21 97 99  68 110 111  86 87 102  61 71 80  70 81 90  51 52 85  50 51 87  76 82 91  5 47 72  54 55 73  70 76 100  74 77 95  71 78 94  56 58 81  48 60 92  59 74 105  6 59 74  45 61 71  87 110 111  80 88 106  57 70 81  49 86 92  43 76 82  91 118 134  4 70 76  53 74 77  46 71 78  66 118 134  90 116 132  67 116 132  51 85 110  19 95 114  51 87 110  59 89 105  54 73 122  47 72 123  83 92 117  81 93 116  11 102 111  89 105 125  86 92 124  22 97 112  37 94 139  19 95 140  44 61 131  44 82 131  40 96 113  77 99 140  37 94 115  78 98 139  38 39 98  20 21 99  80 106 115  77 95 140  78 94 139  29 100 133  70 90 133  13 68 103  9 69 104  29 100 135  76 91 135  65 120 138  70 100 133  64 125 136  76 100 135  64 107 125  10 69 102  61 80 88  62 109 130  65 108 138  12 13 68  9 10 69  36 106 115  17 18 79  26 27 67  31 32 66  14 64 103  8 63 104  63 101 121  10 11 102  13 14 103  8 9 104  86 102 124  23 24 65  14 15 64  34 35 62  7 8 63  68 110 119  28 29 133  29 30 135  96 98 123  35 36 106  97 99 122  84 97 112  41 113 121  118 130 131  23 65 112  44 45 61  5 48 60  6 52 59  55 56 58  16 17 107  25 26 108  32 33 109  11 12 111  43 44 82  56 57 81  69 102 124  48 49 92  79 105 125  49 50 86  37 38 139  4 57 70  19 20 140  101 113 121  6 53 74  45 46 71  4 43 76  60 75 83  53 54 77  46 47 78  88 130 131  89 119 136  17 79 107  58 84 93  26 67 108  32 66 109  52 59 85  18 19 114  5 60 72  55 58 73  50 86 87  35 62 106  85 89 119  75 83 101  60 72 75  72 75 96  59 85 89  73 84 97  58 73 84  27 67 132  31 66 134  12 68 111  69 104 117  73 97 122  54 77 122  72 96 123  40 41 113  47 78 123  22 23 112  3 42 126  3 7 126  78 98 123  77 99 122  1 25 127  1 24 127  0 16 128  0 15 128  2 34 129  2 33 129  75 96 113  18 79 114  38 98 139  36 37 115  79 105 114  82 91 118  20 99 140  75 101 113  63 121 126  81 90 116  85 110 119  63 101 137  68 103 119  65 112 120  103 119 136  69 117 124  84 112 120  41 42 121  16 107 128  25 108 127  33 109 129  64 103 136  63 104 137  24 65 127  15 64 128  34 62 129  7 63 126  61 88 131  84 93 120  83 101 137  27 28 132  30 31 134  83 117 137  92 117 124  79 107 125  64 107 128  65 108 127  62 109 129  93 116 138  104 117 137  66 118 130  66 109 130  67 116 138  67 108 138  89 125 136  82 118 131  93 120 138  90 132 133  91 134 135  28 132 133  30 134 135  42 121 126  </DataArray>
<DataArray  type="UInt32"  Name="offsets"  format="ascii">3 6 9 12 15 18 21 24 27 30 33 36 39 42 45 48 51 54 57 60 63 66 69 72 75 78 81 84 87 90 93 96 99 102 105 108 111 114 117 120 123 126 129 132 135 138 141 144 147 150 153 156 159 162 165 168 171 174 177 180 183 186 189 192 195 198 201 204 207 210 213 216 219 222 225 228 231 234 237 240 243 246 249 252 255 258 261 264 267 270 273 276 279 282 285 288 291 294 297 300 303 306 309 312 315 318 321 324 327 330 333 336 339 342 345 348 351 354 357 360 363 366 369 372 375 378 381 384 387 390 393 396 399 402 405 408 411 414 417 420 423 426 429 432 435 438 441 444 447 450 453 456 459 462 465 468 471 474 477 480 483 486 489 492 495 498 501 504 507 510 513 516 519 522 525 528 531 534 537 540 543 546 549 552 555 558 561 564 567 570 573 576 579 582 585 588 591 594 597 600 603 606 609 612 615 618 621 624 627 630 633 636 639 642 645 648 651 654 657 660 663 666 669 672 </DataArray>
<DataArray  type="UInt8"  Name="types"  format="ascii">5 5 5 5 5 5 5 5 5 5 5 5 5 5 5 5 5 5 5 5 5 5 5 5 5 5 5 5 5 5 5 5 5 5 5 5 5 5 5 5 5 5 5 5 5 5 5 5 5 5 5 5 5 5 5 5 5 5 5 5 5 5 5 5 5 5 5 5 5 5 5 5 5 5 5 5 5 5 5 5 5 5 5 5 5 5 5 5 5 5 5 5 5 5 5 5 5 5 5 5 5 5 5 5 5 5 5 5 5 5 5 5 5 5 5 5 5 5 5 5 5 5 5 5 5 5 5 5 5 5 5 5 5 5 5 5 5 5 5 5 5 5 5 5 5 5 5 5 5 5 5 5 5 5 5 5 5 5 5 5 5 5 5 5 5 5 5 5 5 5 5 5 5 5 5 5 5 5 5 5 5 5 5 5 5 5 5 5 5 5 5 5 5 5 5 5 5 5 5 5 5 5 5 5 5 5 5 5 5 5 5 5 5 5 5 5 5 5 5 5 5 5 5 5 </DataArray>
</Cells>
<PointData  Scalars="f_12-1"> 
<DataArray  type="Float64"  Name="f_12-1"  format="ascii">2.5987335634210131e+00  0.0000000000000000e+00  0.0000000000000000e+00  2.6127544458723553e+00  -2.0679336264160939e-02  -2.3179649598960888e-02  -5.8153395626436219e-02  2.6237649898125599e+00  2.8033417483122580e+00  3.2728912354678417e+00  3.8626104128507461e+00  4.1423497246762917e+00  3.8798848454187809e+00  3.2598741241780198e+00  2.7894392846540730e+00  2.6087666221532100e+00  2.6001056986817210e+00  2.5109453995516815e+00  2.1740942921418513e+00  1.4688368860016967e+00  8.0477913370388032e-01  8.4678442602147311e-02  6.6434263932369869e-02  -1.5110485852549127e-01  -3.6932417359501736e-02  0.0000000000000000e+00  0.0000000000000000e+00  0.0000000000000000e+00  0.0000000000000000e+00  0.0000000000000000e+00  0.0000000000000000e+00  0.0000000000000000e+00  0.0000000000000000e+00  0.0000000000000000e+00  -2.2155425893655885e-02  -1.3204391734441567e-01  2.5816138613441245e-02  1.6148065085727131e-01  7.5598723276256208e-01  1.4806555563545072e+00  2.1962182046934622e+00  2.5246089013103941e+00  2.6151778244468264e+00  -9.8543084364159997e-02  -2.6840549696583405e-01  -6.4474951995831475e-01  -1.1758922139093353e+00  -1.3029116189787742e+00  1.7945353147898948e+00  4.3030980973869761e+00  5.4590986146658649e+00  4.3909218218114976e+00  1.5668460465927823e+00  -1.2677751845966978e+00  -1.3158200354313827e+00  -6.4016582330974714e-01  -2.7461258503308295e-01  -1.0603147171135950e-01  -3.1031772596060486e-01  1.7549623232051399e+00  1.6876421218704751e+00  -3.2902287251908424e-01  -4.5162392617911981e-02  2.6634272893998459e+00  2.6530971860679839e+00  -5.0011611552661463e-02  -6.1588156948829686e-02  -3.8545952139223967e-02  3.5948128890486157e+00  3.5656479535703554e+00  -6.7269064558454453e-02  -5.8259310374676987e-01  8.5705062553640554e-01  -4.9599474300637481e-01  5.2515472397722385e-01  2.1700798048759871e+00  -6.5368312161569381e-02  -1.4875605206991208e-01  -3.1251015058697068e-01  2.3287612181056536e+00  -9.5038230064952017e-02  -1.3576127454444420e-01  -1.2009997632383053e-01  2.5741136976444539e+00  -1.6894664330893522e-01  2.8498413317804077e+00  4.7551962175045546e+00  4.8895306215398513e+00  -2.0176239783829847e-01  2.5629347206815325e+00  -8.7870575750763416e-02  -8.5050702627361266e-02  3.3281991626425089e+00  -1.5202347955985904e-01  2.8102255433383166e-01  1.2784561192833079e+00  1.7245854197947326e+00  -4.9857941505634787e-02  9.7284182229027583e-01  4.0703428974019051e-01  -4.1882344261982403e-02  2.5420188912718626e+00  4.2647326885754984e+00  2.9680905309624657e+00  2.9703848846845555e+00  2.0408568699401610e+00  -4.1574703892355548e-02  2.5431750840347349e+00  -2.8816864582371492e-02  -3.5448082734644303e-02  4.0689356500408520e+00  4.1729870884543230e+00  -6.0806438442855798e-02  2.3618558905781146e+00  1.8333725546942299e+00  -4.6579542269021487e-02  -8.8351131635365801e-02  3.1630027527908666e+00  -9.6727482590551986e-02  3.1642708355932423e+00  -1.0416012426520657e-01  2.5597257912209326e+00  -4.5900148907244831e-01  5.0069730189012396e-01  3.9299111205179553e+00  2.5320131200284495e+00  2.6089977998544822e+00  -2.8574451008463220e-02  2.5940564983433569e+00  -2.1414882512432658e-02  -3.3467033116999736e-02  -1.4419093616561740e-01  -5.1072280469924333e-02  -4.7680208341583021e-02  -4.6026527261187070e-02  -4.7923617316019226e-02  2.7324685202071786e+00  2.7432147650899013e+00  -8.0203290408049410e-02  6.0521443340707759e-01  6.8149741986505807e-01  </DataArray> 
</PointData> 
</Piece>
</UnstructuredGrid>
</VTKFile>