$MeshFormat
4.1 0 8
$EndMeshFormat
$PhysicalNames
5
1 2 "r"
1 3 "l"
1 4 "t"
1 5 "c"
2 1 "Volume"
$EndPhysicalNames
$Entities
13 13 1 0
1 1 0.5 0 0 
2 1 1 0 0 
3 0 1 0 0 
4 0 0.5 0 0 
5 0.25 0.5 0 0 
6 0.2690301168721783 0.5956708580912724 0 0 
7 0.3232233047033631 0.6767766952966369 0 0 
8 0.4043291419087275 0.7309698831278217 0 0 
9 0.5 0.75 0 0 
10 0.5956708580912724 0.7309698831278217 0 0 
11 0.6767766952966369 0.6767766952966369 0 0 
12 0.7309698831278217 0.5956708580912725 0 0 
13 0.75 0.5 0 0 
1 0.75 0.5 0 1 0.5 0 0 2 13 -1 
2 1 0.5 0 1 1 0 1 2 2 1 -2 
3 0 1 0 1 1 0 1 4 2 2 -3 
4 0 0.5 0 0 1 0 1 3 2 3 -4 
5 0 0.5 0 0.25 0.5 0 0 2 4 -5 
6 0.25 0.5 0 0.2690301168721783 0.5956708580912724 0 1 5 2 5 -6 
7 0.2690301168721783 0.5956708580912724 0 0.3232233047033631 0.6767766952966369 0 1 5 2 6 -7 
8 0.3232233047033631 0.6767766952966369 0 0.4043291419087275 0.7309698831278217 0 1 5 2 7 -8 
9 0.4043291419087275 0.7309698831278217 0 0.5 0.75 0 1 5 2 8 -9 
10 0.5 0.7309698831278217 0 0.5956708580912724 0.75 0 1 5 2 9 -10 
11 0.5956708580912724 0.6767766952966369 0 0.6767766952966369 0.7309698831278217 0 1 5 2 10 -11 
12 0.6767766952966369 0.5956708580912725 0 0.7309698831278217 0.6767766952966369 0 1 5 2 11 -12 
13 0.7309698831278217 0.5 0 0.75 0.5956708580912725 0 1 5 2 12 -13 
1 0 0.5 0 1 1 0 1 1 13 1 2 3 4 5 6 7 8 9 10 11 12 13 
$EndEntities
$Nodes
27 75 1 75
0 1 0 1
1
1 0.5 0
0 2 0 1
2
1 1 0
0 3 0 1
3
0 1 0
0 4 0 1
4
0 0.5 0
0 5 0 1
5
0.25 0.5 0
0 6 0 1
6
0.2690301168721783 0.5956708580912724 0
0 7 0 1
7
0.3232233047033631 0.6767766952966369 0
0 8 0 1
8
0.4043291419087275 0.7309698831278217 0
0 9 0 1
9
0.5 0.75 0
0 10 0 1
10
0.5956708580912724 0.7309698831278217 0
0 11 0 1
11
0.6767766952966369 0.6767766952966369 0
0 12 0 1
12
0.7309698831278217 0.5956708580912725 0
0 13 0 1
13
0.75 0.5 0
1 1 0 2
14
15
0.8333333333333333 0.5 0
0.9166666666666666 0.5 0
1 2 0 4
16
17
18
19
1 0.5999999999999998 0
1 0.6999999999999998 0
1 0.7999999999999998 0
1 0.8999999999999999 0
1 3 0 9
20
21
22
23
24
25
26
27
28
0.8999999999995836 1 0
0.7999999999999998 1 0
0.7000000000006934 1 0
0.6000000000013869 1 0
0.5000000000020587 1 0
0.4000000000016644 1 0
0.3000000000012483 1 0
0.2000000000008322 1 0
0.100000000000416 1 0
1 4 0 4
29
30
31
32
0 0.9000000000000002 0
0 0.8000000000000002 0
0 0.7000000000000002 0
0 0.6000000000000001 0
1 5 0 2
33
34
0.08333333333312563 0.5 0
0.1666666666664472 0.5 0
1 6 0 0
1 7 0 0
1 8 0 0
1 9 0 0
1 10 0 0
1 11 0 0
1 12 0 0
1 13 0 0
2 1 0 41
35
36
37
38
39
40
41
42
43
44
45
46
47
48
49
50
51
52
53
54
55
56
57
58
59
60
61
62
63
64
65
66
67
68
69
70
71
72
73
74
75
0.7500000000003464 0.9133974596221568 0
0.08035044786313118 0.760088169424444 0
0.9188086307405176 0.7612479683631782 0
0.2500000000010402 0.9133974596211958 0
0.8749999999999999 0.5721687836487032 0
0.1249999999997865 0.5721687836486082 0
0.5643159936939295 0.8233383350728087 0
0.4356840063060703 0.8233383350728087 0
0.6831564540678223 0.7741130046272799 0
0.2339000683903066 0.6805372330523324 0
0.7660999316096569 0.6805372330523571 0
0.3179436422009781 0.7731533286860756 0
0.7719378137750676 0.7708900254205178 0
0.2277958135912801 0.7702116983446788 0
0.6592456408995965 0.866224029685325 0
0.3409377084791675 0.8660640836947544 0
0.5000000000004159 0.8900318393520221 0
0.1441440359760372 0.9208623945199333 0
0.9217642563732508 0.8577306254183392 0
0.9170293127771318 0.6511062580250491 0
0.08285055559476097 0.6509405724623066 0
0.8563857747844725 0.9233517394685216 0
0.07591868867817317 0.8579168260462741 0
0.2007151059233013 0.5817259784401656 0
0.7992848940766248 0.5817259784402107 0
0.1596937836110895 0.6419789958487807 0
0.8403062163889371 0.6419789958489311 0
0.5789269390997378 0.9210188414747709 0
0.4211036191318055 0.9209921838096011 0
0.8423437125108653 0.7246788016534635 0
0.1575280684072176 0.7192522894680635 0
0.7371972917398941 0.834772484293427 0
0.2626005816284246 0.8341682116581164 0
0.9266700225597746 0.9266700225598858 0
0.07332997744058065 0.9266700225595306 0
0.9423895438838904 0.5635016516785774 0
0.05738158928210202 0.56309576884625 0
0.8339966155105605 0.8342862942081508 0
0.1711910908779005 0.825128149868958 0
0.3424082655229851 0.9400907454251103 0
0.6576345160003522 0.9401280661564506 0
$EndNodes
$Elements
12 142 1 142
1 2 1 5
1 1 16 
2 16 17 
3 17 18 
4 18 19 
5 19 2 
1 3 1 10
6 2 20 
7 20 21 
8 21 22 
9 22 23 
10 23 24 
11 24 25 
12 25 26 
13 26 27 
14 27 28 
15 28 3 
1 4 1 5
16 3 29 
17 29 30 
18 30 31 
19 31 32 
20 32 4 
1 6 1 1
21 5 6 
1 7 1 1
22 6 7 
1 8 1 1
23 7 8 
1 9 1 1
24 8 9 
1 10 1 1
25 9 10 
1 11 1 1
26 10 11 
1 12 1 1
27 11 12 
1 13 1 1
28 12 13 
2 1 2 114
29 43 45 47 
30 44 46 48 
31 41 43 49 
32 46 42 50 
33 42 41 51 
34 43 11 45 
35 44 7 46 
36 41 10 43 
37 8 42 46 
38 9 41 42 
39 24 25 63 
40 23 24 62 
41 64 37 72 
42 51 24 63 
43 24 51 62 
44 36 65 73 
45 47 64 72 
46 45 59 61 
47 58 44 60 
48 67 38 73 
49 45 12 59 
50 6 44 58 
51 65 48 73 
52 35 66 72 
53 38 52 73 
54 37 53 72 
55 48 67 73 
56 56 35 72 
57 57 36 73 
58 26 27 38 
59 30 31 36 
60 17 18 37 
61 21 22 35 
62 38 27 52 
63 37 18 53 
64 27 28 52 
65 18 19 53 
66 16 17 54 
67 31 32 55 
68 10 11 43 
69 6 7 44 
70 11 12 45 
71 7 8 46 
72 9 10 41 
73 8 9 42 
74 20 21 56 
75 29 30 57 
76 66 47 72 
77 17 37 54 
78 36 31 55 
79 33 34 40 
80 14 15 39 
81 49 35 75 
82 38 50 74 
83 21 35 56 
84 30 36 57 
85 12 13 59 
86 5 6 58 
87 40 55 71 
88 54 39 70 
89 26 38 74 
90 35 22 75 
91 2 20 68 
92 28 3 69 
93 3 29 69 
94 19 2 68 
95 32 4 71 
96 1 16 70 
97 44 48 65 
98 47 45 64 
99 55 32 71 
100 16 54 70 
101 34 5 58 
102 13 14 59 
103 43 47 66 
104 48 46 67 
105 54 37 64 
106 36 55 65 
107 4 33 71 
108 15 1 70 
109 49 43 66 
110 46 50 67 
111 41 49 62 
112 50 42 63 
113 35 49 66 
114 50 38 67 
115 55 40 60 
116 39 54 61 
117 61 54 64 
118 55 60 65 
119 51 41 62 
120 42 51 63 
121 20 56 68 
122 29 57 69 
123 23 62 75 
124 63 25 74 
125 40 34 58 
126 14 39 59 
127 53 19 68 
128 52 28 69 
129 25 26 74 
130 22 23 75 
131 56 53 68 
132 57 52 69 
133 59 39 61 
134 40 58 60 
135 39 15 70 
136 33 40 71 
137 53 56 72 
138 52 57 73 
139 60 44 65 
140 45 61 64 
141 62 49 75 
142 50 63 74 
$EndElements
