$MeshFormat
4.1 0 8
$EndMeshFormat
$PhysicalNames
6
1 2 "i"
1 3 "o"
1 4 "t"
1 5 "b"
1 6 "c"
2 1 "Volume"
$EndPhysicalNames
$Entities
8 7 2 0
1 0 0 0 0 
2 0.5 0 0 0 
3 0.5 0.5 0 0 
4 0 0.5 0 0 
5 0.25 0.25 0 0 
6 0.3 0.25 0 0 
7 0.225 0.2933012701892219 0 0 
8 0.225 0.2066987298107781 0 0 
1 0 0 0 0 0.5 0 1 2 2 4 -1 
2 0 0 0 0.5 0 0 1 5 2 1 -2 
3 0.5 0 0 0.5 0.5 0 1 3 2 2 -3 
4 0 0.5 0 0.5 0.5 0 1 4 2 3 -4 
5 0.225 0.25 0 0.3 0.2999154079135634 0 1 6 2 6 -7 
6 0.2003380821129029 0.2066987298107781 0 0.225 0.2933012701892219 0 1 6 2 7 -8 
7 0.225 0.2000845920864366 0 0.3 0.25 0 1 6 2 8 -6 
1 0.2003380821129029 0.2000845920864366 0 0.3 0.2999154079135634 0 0 3 5 6 7 
2 0 0 0 0.5 0.5 0 1 1 7 1 2 3 4 -7 -6 -5 
$EndEntities
$Nodes
15 180 1 180
0 1 0 1
1
0 0 0
0 2 0 1
2
0.5 0 0
0 3 0 1
3
0.5 0.5 0
0 4 0 1
4
0 0.5 0
0 6 0 1
5
0.3 0.25 0
0 7 0 1
6
0.225 0.2933012701892219 0
0 8 0 1
7
0.225 0.2066987298107781 0
1 1 0 9
8
9
10
11
12
13
14
15
16
0 0.4499999999997918 0
0 0.3999999999999999 0
0 0.3500000000003467 0
0 0.3000000000006934 0
0 0.2500000000010293 0
0 0.2000000000008322 0
0 0.1500000000006241 0
0 0.1000000000004161 0
0 0.05000000000020799 0
1 2 0 9
17
18
19
20
21
22
23
24
25
0.04999999999990733 0 0
0.09999999999977893 0 0
0.1499999999996332 0 0
0.1999999999994874 0 0
0.2499999999993471 0 0
0.2999999999994734 0 0
0.349999999999605 0 0
0.3999999999997367 0 0
0.4499999999998684 0 0
1 3 0 9
26
27
28
29
30
31
32
33
34
0.5 0.04999999999990733 0
0.5 0.09999999999977893 0
0.5 0.1499999999996332 0
0.5 0.1999999999994874 0
0.5 0.2499999999993471 0
0.5 0.2999999999994734 0
0.5 0.349999999999605 0
0.5 0.3999999999997367 0
0.5 0.4499999999998684 0
1 4 0 9
35
36
37
38
39
40
41
42
43
0.4499999999997918 0.5 0
0.3999999999999999 0.5 0
0.3500000000003467 0.5 0
0.3000000000006934 0.5 0
0.2500000000010293 0.5 0
0.2000000000008322 0.5 0
0.1500000000006241 0.5 0
0.1000000000004161 0.5 0
0.05000000000020799 0.5 0
1 5 0 2
44
45
0.2883022220728773 0.2821393805833279 0
0.258682408836409 0.2992403876588867 0
1 6 0 2
46
47
0.2030153689379122 0.2671010071036617 0
0.203015369004322 0.2328989927138786 0
1 7 0 2
48
49
0.2586824090057267 0.2007596123709685 0
0.288302222214786 0.2178606195857924 0
2 2 0 131
50
51
52
53
54
55
56
57
58
59
60
61
62
63
64
65
66
67
68
69
70
71
72
73
74
75
76
77
78
79
80
81
82
83
84
85
86
87
88
89
90
91
92
93
94
95
96
97
98
99
100
101
102
103
104
105
106
107
108
109
110
111
112
113
114
115
116
117
118
119
120
121
122
123
124
125
126
127
128
129
130
131
132
133
134
135
136
137
138
139
140
141
142
143
144
145
146
147
148
149
150
151
152
153
154
155
156
157
158
159
160
161
162
163
164
165
166
167
168
169
170
171
172
173
174
175
176
177
178
179
180
0.3751245314993061 0.03973387669648371 0
0.3750000000001733 0.4566987298110784 0
0.1253546957727333 0.4580639689894951 0
0.0478692860565663 0.1325748796032659 0
0.4581852348302196 0.3203994767878362 0
0.46080124063886 0.174665730100256 0
0.04470245996526934 0.3271689107476877 0
0.1796338598868043 0.04619102550496981 0
0.2264416749455962 0.4584268982318925 0
0.04330127018916185 0.2250000000009308 0
0.2748347166821133 0.0406637120231923 0
0.2883022222766318 0.1836586053047056 0
0.3219846309184772 0.2762002630843188 0
0.3116775863820987 0.3087615564253562 0
0.3251364290772064 0.2210345672376865 0
0.2594145284578552 0.1652028848049388 0
0.2366337420372132 0.3260797117325542 0
0.2020873367711779 0.319839309266446 0
0.2899068266054078 0.1469048815237736 0
0.3461168984043659 0.303163121154937 0
0.3337997173444705 0.3384978980240702 0
0.2142537160765595 0.3543926530353163 0
0.1765154047127625 0.3482618841428314 0
0.2528805396214744 0.3571806796796689 0
0.1634556219399608 0.3129252402465109 0
0.3583207135039732 0.2679596292803207 0
0.3217131379670873 0.1652185398753981 0
0.1370905977905332 0.341288512260213 0
0.124573777538801 0.3025374215065109 0
0.2572102540934321 0.1279511164863645 0
0.2243502793598521 0.1476335434527628 0
0.1907528707801227 0.2003599300027569 0
0.1668527395109344 0.2248122502130994 0
0.1544726406861577 0.1917802912311983 0
0.3236516092305547 0.1270658980376275 0
0.3577008187781846 0.1485135945905948 0
0.1300480971533532 0.2219924701201196 0
0.1160637910860283 0.1845946508203826 0
0.147764802711962 0.1481500968370123 0
0.373097115977545 0.3334579399461433 0
0.3604154331287176 0.3719922708374941 0
0.1883741405612747 0.3836061407293173 0
0.3185904674503973 0.3762515538335195 0
0.2224697649312733 0.10922229359396 0
0.4513228542427794 0.4213782917505393 0
0.4522252415737005 0.07810446008713651 0
0.07909618925893525 0.04853575687208889 0
0.03517763680487558 0.4246883215088751 0
0.3997249818230841 0.3628978479651797 0
0.3589173791148014 0.1079401869852739 0
0.3949271235009246 0.1292654475739387 0
0.3913792787083177 0.1718707525683268 0
0.3238699743273321 0.08843794100293892 0
0.1001870779100839 0.1430137167707623 0
0.1277621477653087 0.1103018880447561 0
0.1890952742668354 0.1290559187050575 0
0.3459147448669703 0.4149968159288331 0
0.2993432271077908 0.4177775935419977 0
0.07129352837890447 0.1815172924485499 0
0.1517685602210177 0.2789125285771755 0
0.0939877079479592 0.3341691913245756 0
0.1093543784698693 0.3791584712193458 0
0.08178907303293106 0.2932631839514512 0
0.2753877038796341 0.4583804540812314 0
0.2535039671380368 0.4209814794334937 0
0.2301694756625733 0.04162630495009145 0
0.06901118430996657 0.3634229409474595 0
0.1770214316213753 0.4585208377823787 0
0.1504214267755324 0.414528526645103 0
0.4606766656596371 0.1272807162454065 0
0.4522162653754316 0.3701873017350504 0
0.324274279309268 0.4579755988938568 0
0.3928507320703674 0.4116241421769933 0
0.1287825132915031 0.04147680871188368 0
0.3977492852443377 0.08251952216675139 0
0.2548036114767099 0.08273108796921179 0
0.4597475712017847 0.2236702343779899 0
0.4579167570177701 0.2725524610695076 0
0.4218353999860285 0.2413495315374833 0
0.4202816450675402 0.2845798941114667 0
0.08514665855890666 0.09859284901643942 0
0.1871166086582942 0.09059461407318736 0
0.04057754848988308 0.2759175530201671 0
0.3509875904970405 0.1914348934969251 0
0.3880952838707471 0.2120573734732449 0
0.113735320512414 0.2615495985251067 0
0.09135241584529966 0.2224545392223834 0
0.2945561809643403 0.3438170070512473 0
0.4220951743224274 0.458849770560014 0
0.4230827529897608 0.03949339988811595 0
0.3241866405008561 0.04514117278378679 0
0.04177289225504089 0.07752108627500906 0
0.07379459005196394 0.4523158048775656 0
0.1056572861389453 0.421136980635405 0
0.1834675060245303 0.1654693814863561 0
0.2901735966209345 0.1094995853860395 0
0.2812906125974751 0.3839025003224974 0
0.20399770690507 0.420622822454154 0
0.1519422506674973 0.3743133895201537 0
0.4246486775117331 0.1960204857228303 0
0.2293064426317788 0.3874408554324321 0
0.2128195801844726 0.177296548506847 0
0.2674569374063621 0.3288746530694798 0
0.3834930259978847 0.294489105482991 0
0.1500329019978281 0.0795970796228411 0
0.3568809914209448 0.2315578133505187 0
0.4262388678500122 0.1512513245361186 0
0.0323695387116507 0.1757336616026941 0
0.4195410287168043 0.3309136318863217 0
0.1880724077301091 0.2932153732135091 0
0.4240287083779156 0.3915218959069406 0
0.2925454644505806 0.07373920644047594 0
0.1758587796965018 0.255775865416766 0
0.4633974596214523 0.4633974596214729 0
0.4633974596216157 0.03660254037832412 0
0.3881511766411864 0.2553322245393375 0
0.3351451772596219 0.2500000000961782 0
0.03660254037831114 0.0366025403783917 0
0.03660254037843801 0.463397459621562 0
0.1141640821744964 0.07570087645360185 0
0.3152638011643384 0.1952371686858723 0
0.355502405225104 0.07230220680481149 0
0.4259739465699736 0.1121758715173227 0
0.07415112561393793 0.2556369749440078 0
0.2167752938947815 0.07467603591255487 0
0.03210177086966656 0.3764369306675919 0
0.1603543470800457 0.1115399194565709 0
0.2383523977310298 0.183943164529836 0
0.2837549805937606 0.3097200523219674 0
0.06990366280839337 0.4020706740343849 0
0.1476526994188442 0.2486085425704534 0
$EndNodes
$Elements
8 360 1 360
1 1 1 10
1 4 8 
2 8 9 
3 9 10 
4 10 11 
5 11 12 
6 12 13 
7 13 14 
8 14 15 
9 15 16 
10 16 1 
1 2 1 10
11 1 17 
12 17 18 
13 18 19 
14 19 20 
15 20 21 
16 21 22 
17 22 23 
18 23 24 
19 24 25 
20 25 2 
1 3 1 10
21 2 26 
22 26 27 
23 27 28 
24 28 29 
25 29 30 
26 30 31 
27 31 32 
28 32 33 
29 33 34 
30 34 3 
1 4 1 10
31 3 35 
32 35 36 
33 36 37 
34 37 38 
35 38 39 
36 39 40 
37 40 41 
38 41 42 
39 42 43 
40 43 4 
1 5 1 3
41 5 44 
42 44 45 
43 45 6 
1 6 1 3
44 6 46 
45 46 47 
46 47 7 
1 7 1 3
47 7 48 
48 48 49 
49 49 5 
2 2 2 311
50 94 122 160 
51 53 103 108 
52 122 94 138 
53 118 91 147 
54 117 118 147 
55 120 98 158 
56 129 153 165 
57 59 108 136 
58 106 51 121 
59 103 53 130 
60 108 87 136 
61 128 129 165 
62 98 120 160 
63 51 106 122 
64 115 60 125 
65 111 118 143 
66 95 124 139 
67 53 108 157 
68 73 146 150 
69 110 56 112 
70 90 98 122 
71 106 90 122 
72 107 113 114 
73 96 130 141 
74 89 153 158 
75 112 56 132 
76 133 64 170 
77 130 96 169 
78 118 111 148 
79 124 95 172 
80 54 120 158 
81 113 107 121 
82 88 105 144 
83 127 54 129 
84 87 86 136 
85 146 114 150 
86 105 88 176 
87 56 110 116 
88 64 133 155 
89 51 122 138 
90 108 59 157 
91 31 54 127 
92 56 11 132 
93 115 125 174 
94 144 80 151 
95 107 114 146 
96 107 106 121 
97 73 137 146 
98 38 113 121 
99 57 20 115 
100 105 80 144 
101 57 115 174 
102 137 73 152 
103 153 129 158 
104 131 57 174 
105 126 128 149 
106 126 127 128 
107 58 40 117 
108 128 134 149 
109 113 58 114 
110 28 55 119 
111 54 32 120 
112 19 57 123 
113 58 117 147 
114 128 127 129 
115 86 135 136 
116 117 52 118 
117 153 75 165 
118 21 60 115 
119 126 30 127 
120 55 29 126 
121 39 58 113 
122 39 40 58 
123 21 22 60 
124 12 13 59 
125 10 11 56 
126 30 31 127 
127 19 20 57 
128 28 29 55 
129 31 32 54 
130 124 50 139 
131 36 37 51 
132 23 24 50 
133 143 142 179 
134 51 37 121 
135 60 22 140 
136 41 52 117 
137 95 27 119 
138 33 94 120 
139 23 50 140 
140 118 52 143 
141 20 21 115 
142 29 30 126 
143 96 18 123 
144 40 41 117 
145 27 28 119 
146 32 33 120 
147 18 19 123 
148 38 39 113 
149 37 38 121 
150 142 97 179 
151 33 34 94 
152 26 27 95 
153 74 78 109 
154 14 15 53 
155 41 42 52 
156 130 53 141 
157 17 18 96 
158 8 9 97 
159 60 140 161 
160 12 59 132 
161 110 111 116 
162 11 12 132 
163 96 123 169 
164 85 101 133 
165 36 51 138 
166 50 24 139 
167 76 85 133 
168 159 109 162 
169 59 13 157 
170 35 36 138 
171 24 25 139 
172 74 109 159 
173 133 101 134 
174 91 118 148 
175 85 100 101 
176 67 72 74 
177 79 65 80 
178 129 54 158 
179 15 16 141 
180 42 43 142 
181 155 75 166 
182 140 102 161 
183 56 116 175 
184 10 56 175 
185 109 78 135 
186 98 89 158 
187 74 77 78 
188 70 90 92 
189 44 5 62 
190 5 49 64 
191 63 70 137 
192 88 104 176 
193 6 45 66 
194 53 15 141 
195 52 42 142 
196 49 48 61 
197 14 53 157 
198 92 106 107 
199 78 110 112 
200 7 47 81 
201 78 112 135 
202 83 87 88 
203 46 6 159 
204 93 80 105 
205 99 84 102 
206 44 62 63 
207 70 92 137 
208 88 103 104 
209 74 72 77 
210 79 80 93 
211 22 23 140 
212 61 48 65 
213 75 155 165 
214 92 90 106 
215 100 99 124 
216 85 99 100 
217 76 84 85 
218 76 133 170 
219 103 87 108 
220 78 77 110 
221 97 175 179 
222 63 69 70 
223 85 84 99 
224 69 62 75 
225 135 86 180 
226 61 68 76 
227 110 77 111 
228 137 92 146 
229 104 103 130 
230 70 89 90 
231 97 9 175 
232 68 65 79 
233 71 66 73 
234 6 66 67 
235 88 87 103 
236 79 93 125 
237 76 68 84 
238 93 105 131 
239 83 86 87 
240 83 88 144 
241 90 89 98 
242 140 50 171 
243 63 62 69 
244 83 82 86 
245 80 65 177 
246 70 69 89 
247 67 71 72 
248 3 35 163 
249 34 3 163 
250 2 26 164 
251 25 2 164 
252 116 111 179 
253 61 65 68 
254 81 83 144 
255 55 126 149 
256 72 71 91 
257 81 47 82 
258 1 17 167 
259 16 1 167 
260 4 8 168 
261 43 4 168 
262 46 159 162 
263 119 55 156 
264 81 82 83 
265 67 66 71 
266 120 94 160 
267 114 58 147 
268 52 142 143 
269 6 67 159 
270 59 136 173 
271 102 84 145 
272 123 57 154 
273 47 46 162 
274 111 143 179 
275 63 137 178 
276 132 59 173 
277 122 98 160 
278 79 125 145 
279 95 119 172 
280 102 140 171 
281 84 68 145 
282 68 79 145 
283 50 124 171 
284 57 131 154 
285 92 107 146 
286 111 77 148 
287 72 91 148 
288 125 60 161 
289 133 134 155 
290 62 5 166 
291 5 64 166 
292 73 66 152 
293 134 101 149 
294 64 49 170 
295 91 71 150 
296 82 47 162 
297 124 99 171 
298 89 69 153 
299 77 72 148 
300 49 61 170 
301 81 144 151 
302 149 101 156 
303 151 80 177 
304 66 45 152 
305 109 135 180 
306 7 81 151 
307 13 14 157 
308 67 74 159 
309 69 75 153 
310 71 73 150 
311 125 93 174 
312 139 25 164 
313 35 138 163 
314 112 132 173 
315 136 135 173 
316 175 116 179 
317 101 100 156 
318 55 149 156 
319 137 152 178 
320 141 16 167 
321 142 43 168 
322 147 91 150 
323 94 34 163 
324 26 95 164 
325 17 96 167 
326 8 97 168 
327 134 128 165 
328 135 112 173 
329 9 10 175 
330 138 94 163 
331 95 139 164 
332 119 156 172 
333 75 62 166 
334 61 76 170 
335 156 100 172 
336 96 141 167 
337 97 142 168 
338 64 155 166 
339 114 147 150 
340 48 7 177 
341 45 44 178 
342 65 48 177 
343 44 63 178 
344 104 130 169 
345 100 124 172 
346 99 102 171 
347 93 131 174 
348 102 145 161 
349 104 154 176 
350 131 105 176 
351 86 82 180 
352 145 125 161 
353 154 104 169 
354 155 134 165 
355 154 131 176 
356 123 154 169 
357 7 151 177 
358 152 45 178 
359 82 162 180 
360 162 109 180 
$EndElements
