$MeshFormat
4.1 0 8
$EndMeshFormat
$PhysicalNames
5
1 2 "r"
1 3 "R"
1 4 "top"
1 5 "bottom"
2 1 "Volume"
$EndPhysicalNames
$Entities
6 4 1 0
1 0 0 0 0 
2 0 0 0 0 
3 1 0 0 0 
4 0.7071067811865476 0.7071067811865475 0 0 
5 1.414213562373095 1.414213562373095 0 0 
6 2 0 0 0 
1 0.7071067811865476 0 0 1 0.7071067811865475 0 1 2 2 3 -4 
2 0.7071067811865476 0.7071067811865475 0 1.414213562373095 1.414213562373095 0 1 4 2 4 -5 
3 1.414213562373095 0 0 2 1.414213562373095 0 1 3 2 5 -6 
4 1 0 0 2 0 0 1 5 2 6 -3 
1 0.7071067811865476 0 0 2 1.414213562373095 0 1 1 4 1 2 3 4 
$EndEntities
$Nodes
9 171 1 171
0 3 0 1
1
1 0 0
0 4 0 1
2
0.7071067811865476 0.7071067811865475 0
0 5 0 1
3
1.414213562373095 1.414213562373095 0
0 6 0 1
4
2 0 0
1 1 0 7
5
6
7
8
9
10
11
0.9951847266481262 0.09801714057395434 0
0.9807852803005146 0.1950903225325157 0
0.9569403354914541 0.2902846780481245 0
0.9238795320890558 0.3826834333844453 0
0.8819212639518064 0.4713967375678881 0
0.8314696119998113 0.5555702334726755 0
0.773010453243687 0.6343932843087082 0
1 2 0 9
12
13
14
15
16
17
18
19
20
0.7778174593051199 0.7778174593051198 0
0.8485281374235492 0.848528137423549 0
0.9192388155419372 0.9192388155419371 0
0.9899494936603924 0.9899494936603923 0
1.060660171778835 1.060660171778834 0
1.131370849897643 1.131370849897643 0
1.202081528016508 1.202081528016508 0
1.272792206135378 1.272792206135378 0
1.343502884254265 1.343502884254264 0
1 3 0 15
21
22
23
24
25
26
27
28
29
30
31
32
33
34
35
1.481902250840829 1.343117909549599 0
1.546020907038911 1.268786567945367 0
1.606415063464734 1.191398608306051 0
1.662939225219945 1.11114046511901 0
1.715457220699685 1.028205487219997 0
1.763842529455995 0.9427934722314721 0
1.807978587098114 0.8551101850607949 0
1.847759065870242 0.765366862683726 0
1.883088131037715 0.6737797049072384 0
1.913880671933879 0.5805693529613201 0
1.940062506691485 0.4859603585992935 0
1.961570561026591 0.3901806429255857 0
1.978353020053923 0.2934609480723475 0
1.990369453396863 0.19603428012639 0
1.997590912420535 0.09813534844740679 0
1 4 0 9
36
37
38
39
40
41
42
43
44
1.9 0 0
1.8 0 0
1.7 0 0
1.6 0 0
1.5 0 0
1.4 0 0
1.3 0 0
1.2 0 0
1.1 0 0
2 1 0 127
45
46
47
48
49
50
51
52
53
54
55
56
57
58
59
60
61
62
63
64
65
66
67
68
69
70
71
72
73
74
75
76
77
78
79
80
81
82
83
84
85
86
87
88
89
90
91
92
93
94
95
96
97
98
99
100
101
102
103
104
105
106
107
108
109
110
111
112
113
114
115
116
117
118
119
120
121
122
123
124
125
126
127
128
129
130
131
132
133
134
135
136
137
138
139
140
141
142
143
144
145
146
147
148
149
150
151
152
153
154
155
156
157
158
159
160
161
162
163
164
165
166
167
168
169
170
171
1.018214227070709 0.3671809184897634 0
1.714990330382596 0.8741998269580425 0
1.448894394361723 0.08429536869947163 0
1.82651423087776 0.6034595543756616 0
1.096248656236486 0.951696733857137 0
0.92968117317807 0.5564096079935327 0
1.567515739406801 1.091675680470393 0
1.877722495851801 0.3181243971097581 0
1.24352230867251 0.08289052327482099 0
1.65252241537249 0.08519729104383718 0
1.227290960930341 1.106297295520123 0
0.9423659715343626 0.824063997633514 0
1.845393339872274 0.08381034566569918 0
1.364153519889213 1.245626604323843 0
1.0720528450615 0.1590240178884542 0
0.977025244635335 0.4624837956033013 0
1.076169958945848 0.4498620301503197 0
1.117643317326696 0.3502012884175723 0
1.178148416504888 0.4320719818385376 0
1.135396837753775 0.5284669814751648 0
1.234571908203628 0.5154852189140624 0
1.274352806264894 0.4258792832046661 0
1.33242407786863 0.5053190063356232 0
1.292528702611174 0.5953334383396661 0
1.390462368480368 0.584930718249441 0
1.430342127109437 0.4948637957333438 0
1.350493084598508 0.6750212816923143 0
1.488472548647581 0.5744915403944619 0
1.528363226454317 0.4843729061305551 0
1.252370216269532 0.685478871495286 0
1.3104884896424 0.7652989106939977 0
1.408699502692552 0.7548166110252065 0
1.36866635745067 0.8451191547724257 0
1.470159700416335 0.4046964501706312 0
1.568313771636059 0.3941642381810164 0
1.466839941415621 0.8346256566344636 0
1.426839229713628 0.9249360406674267 0
1.586556846372072 0.5641479150865265 0
1.511585444659045 0.3150717713524669 0
1.608928642440309 0.3077495414211167 0
1.666623786722345 0.3842632660637652 0
1.212158793967686 0.7757739905246708 0
1.524866426372011 0.9144828712749438 0
1.506778429152707 0.7443886984906201 0
1.405392237940101 0.3257237132288321 0
1.1545585286252 0.6960122856690513 0
1.70661700735703 0.2968206050300778 0
1.328612181337067 0.9354426664762644 0
1.385866027086449 1.019032446263259 0
1.113689590842537 0.7861793293564018 0
1.056856311256797 0.7122279816114663 0
1.556675136222846 0.2372582965547987 0
1.783485007023844 0.3722983300550853 0
1.724735252404382 0.463252683221806 0
1.17517897211649 0.873307275310511 0
1.806827967033843 0.4577654886494197 0
0.8796881320043783 0.6461747345790936 0
1.051303538048058 0.2633378282414612 0
1.15281659098148 0.2566608740185471 0
1.032500985541479 0.5428645879892379 0
1.192128597840858 0.1629792319821839 0
1.241447666034747 0.2404205946489285 0
1.22893033404912 0.3375615420306762 0
0.9943733839053599 0.6347771908059432 0
1.749755040065526 0.08571313445160944 0
1.798689198938693 0.1673018820620122 0
1.702458372799583 0.1618229999218012 0
1.298739571986705 1.176443928556661 0
1.389295997161389 1.145426465030106 0
1.350719424769666 0.08433831125705356 0
1.408476576377102 0.16364735077342 0
1.551518084004158 0.08250357530803529 0
1.011125800343335 0.8909777622334019 0
1.157296276790854 1.034940695012628 0
1.266041994625445 1.00850736290665 0
1.56205144730995 0.8230418156993921 0
1.60160184408504 0.7325823455244405 0
0.8744100419336953 0.7519355547949728 0
1.546110973989721 0.6540051475348 0
1.641962626483067 0.6426181027478064 0
1.695934885008395 0.7136918965214646 0
1.681861507376761 0.5495238337509638 0
1.626075731827656 0.4732874737391054 0
1.448502817926906 0.6646089995644739 0
1.487192823862205 1.005226982012683 0
1.586689679729873 0.9876154922038805 0
1.371676398858966 0.4203758574892204 0
1.194766054099257 0.6062678494800462 0
1.275137678856547 0.853729623457896 0
1.619995045560255 0.8933457950678957 0
1.314957813393389 0.2806641759483286 0
1.90155255976582 0.1567023791156115 0
1.456244620533568 1.226298626173923 0
1.094742016863645 0.6201028128384849 0
1.794565286886676 0.2882234301257431 0
1.318783576629157 1.0857116179684 0
1.791339166765126 0.6943628389164409 0
1.471021453848095 1.100632851764079 0
0.9625845532754309 0.7277057816133238 0
1.460032945359217 0.2416854350567632 0
1.138169535355098 0.07974471943189435 0
1.305111184364716 0.1804883631211966 0
1.736426702230939 0.6214937427072468 0
1.188504705318709 0.9559568441791029 0
1.60124122516329 0.1605173285081555 0
1.028738626910284 0.7989842926164216 0
1.760806476966384 0.7827974635710866 0
1.504473060248056 0.161651225816774 0
1.77273587352362 0.5363398923996666 0
1.659230004885436 0.803276523890387 0
1.918226487874774 0.2385982103642182 0
1.528003154525358 1.173614760301 0
1.09113838606884 0.8638623024524786 0
1.673818225914184 0.9609839431422547 0
1.860049581218039 0.5225440516929024 0
1.654137279419231 0.2324850186697961 0
0.8100549756775012 0.7049443430595004 0
1.878135202151407 0.4151469288695518 0
1.378794151486905 0.2384418076257081 0
1.925357763896807 0.07237533873083243 0
1.412610623933385 1.310256438271357 0
1.749933675951113 0.2292204972010691 0
1.641934549656702 1.039743585172241 0
1.318583496802182 0.3602500520608822 0
1.252431857278716 0.9266897559055779 0
1.061081421412945 0.06735717557886059 0
1.840114950878146 0.233028465996402 0
$EndNodes
$Elements
5 340 1 340
1 1 1 8
1 1 5 
2 5 6 
3 6 7 
4 7 8 
5 8 9 
6 9 10 
7 10 11 
8 11 2 
1 2 1 10
9 2 12 
10 12 13 
11 13 14 
12 14 15 
13 15 16 
14 16 17 
15 17 18 
16 18 19 
17 19 20 
18 20 3 
1 3 1 16
19 3 21 
20 21 22 
21 22 23 
22 23 24 
23 24 25 
24 25 26 
25 26 27 
26 27 28 
27 28 29 
28 29 30 
29 30 31 
30 31 32 
31 32 33 
32 33 34 
33 34 35 
34 35 4 
1 4 1 10
35 4 36 
36 36 37 
37 37 38 
38 38 39 
39 39 40 
40 40 41 
41 41 42 
42 42 43 
43 43 44 
44 44 1 
2 1 2 296
45 93 113 142 
46 53 105 146 
47 105 106 146 
48 113 93 140 
49 52 97 162 
50 93 92 119 
51 59 102 103 
52 93 119 140 
53 59 103 105 
54 53 43 145 
55 101 122 143 
56 62 63 107 
57 129 51 130 
58 97 52 139 
59 63 66 107 
60 108 101 143 
61 99 49 148 
62 49 99 157 
63 104 108 138 
64 108 95 138 
65 34 35 136 
66 21 22 137 
67 105 53 145 
68 51 129 142 
69 146 135 163 
70 106 135 146 
71 64 61 104 
72 136 35 164 
73 21 137 165 
74 97 100 162 
75 113 137 142 
76 45 62 102 
77 102 62 103 
78 142 137 156 
79 149 116 152 
80 103 62 107 
81 61 60 104 
82 151 125 154 
83 159 31 162 
84 100 159 162 
85 129 93 142 
86 46 151 154 
87 96 149 152 
88 45 60 61 
89 126 147 153 
90 60 50 104 
91 43 44 145 
92 104 50 108 
93 64 104 138 
94 45 8 60 
95 7 45 102 
96 10 11 101 
97 9 50 60 
98 59 6 102 
99 105 103 106 
100 147 48 153 
101 45 61 62 
102 106 103 107 
103 13 56 122 
104 38 54 109 
105 55 18 112 
106 47 114 115 
107 109 54 111 
108 56 14 117 
109 47 41 114 
110 40 47 116 
111 82 124 126 
112 82 123 124 
113 57 109 110 
114 126 98 127 
115 112 58 113 
116 82 72 123 
117 49 16 118 
118 123 72 128 
119 57 37 109 
120 85 79 127 
121 12 13 122 
122 19 58 112 
123 36 37 57 
124 19 20 58 
125 62 61 63 
126 118 55 119 
127 79 73 127 
128 88 123 128 
129 76 88 128 
130 42 53 114 
131 98 85 127 
132 54 39 116 
133 13 14 56 
134 80 87 120 
135 15 49 117 
136 42 43 53 
137 17 55 118 
138 38 39 54 
139 17 18 55 
140 110 109 111 
141 40 41 47 
142 97 85 98 
143 88 120 121 
144 91 85 97 
145 97 98 100 
146 73 82 127 
147 37 38 109 
148 14 15 117 
149 15 16 49 
150 18 19 112 
151 87 129 130 
152 88 80 120 
153 76 80 88 
154 41 42 114 
155 80 81 87 
156 39 40 116 
157 71 76 128 
158 124 121 125 
159 84 79 85 
160 16 17 118 
161 123 121 124 
162 76 77 80 
163 120 87 134 
164 73 72 82 
165 82 126 127 
166 88 121 123 
167 71 75 76 
168 87 81 129 
169 94 90 95 
170 80 77 81 
171 26 27 46 
172 84 85 91 
173 7 8 45 
174 72 69 128 
175 69 71 128 
176 70 69 72 
177 63 61 64 
178 70 72 73 
179 67 69 70 
180 67 68 69 
181 76 75 77 
182 66 65 67 
183 63 64 65 
184 81 93 129 
185 69 68 71 
186 8 9 60 
187 63 65 66 
188 67 65 68 
189 78 73 79 
190 29 30 48 
191 86 74 90 
192 6 7 102 
193 83 79 84 
194 78 83 89 
195 81 92 93 
196 67 70 131 
197 32 33 52 
198 9 10 50 
199 70 73 78 
200 23 24 51 
201 86 90 94 
202 71 74 75 
203 66 67 131 
204 81 77 92 
205 78 79 83 
206 65 64 132 
207 68 65 132 
208 86 94 99 
209 71 68 74 
210 83 84 96 
211 75 74 86 
212 5 6 59 
213 50 10 101 
214 70 78 131 
215 90 74 132 
216 77 75 133 
217 86 99 133 
218 78 89 131 
219 50 101 108 
220 75 86 133 
221 74 68 132 
222 92 77 133 
223 87 130 134 
224 134 130 158 
225 95 90 138 
226 130 51 167 
227 119 55 140 
228 112 113 140 
229 107 66 168 
230 132 64 138 
231 106 107 135 
232 122 101 161 
233 57 110 136 
234 113 58 137 
235 90 132 138 
236 158 130 167 
237 91 97 139 
238 55 112 140 
239 89 83 144 
240 114 53 146 
241 29 48 141 
242 54 116 149 
243 28 29 141 
244 124 125 147 
245 49 118 148 
246 120 134 154 
247 98 126 153 
248 101 11 161 
249 134 46 154 
250 2 12 161 
251 122 56 143 
252 11 2 161 
253 115 146 163 
254 125 121 154 
255 4 36 164 
256 20 3 165 
257 35 4 164 
258 3 21 165 
259 139 52 171 
260 59 105 145 
261 95 108 143 
262 125 141 147 
263 56 117 150 
264 96 84 160 
265 117 49 157 
266 46 27 151 
267 133 99 169 
268 131 89 168 
269 57 136 164 
270 137 58 165 
271 94 95 150 
272 52 155 171 
273 5 59 170 
274 26 46 158 
275 89 135 168 
276 33 34 155 
277 22 23 156 
278 47 115 152 
279 46 134 158 
280 83 96 144 
281 31 32 162 
282 51 24 167 
283 116 47 152 
284 34 136 155 
285 137 22 156 
286 28 141 151 
287 141 125 151 
288 115 114 146 
289 126 124 147 
290 141 48 147 
291 118 119 148 
292 111 54 149 
293 119 92 169 
294 95 143 150 
295 135 107 168 
296 27 28 151 
297 99 148 169 
298 149 96 160 
299 51 142 156 
300 59 145 170 
301 48 30 159 
302 150 117 157 
303 30 31 159 
304 100 98 153 
305 121 120 154 
306 115 144 152 
307 52 33 155 
308 23 51 156 
309 25 26 158 
310 99 94 157 
311 12 122 161 
312 89 144 163 
313 143 56 150 
314 84 91 160 
315 44 1 170 
316 32 52 162 
317 36 57 164 
318 58 20 165 
319 1 5 170 
320 111 160 166 
321 110 111 166 
322 160 91 166 
323 144 96 152 
324 135 89 163 
325 94 150 157 
326 24 25 167 
327 66 131 168 
328 92 133 169 
329 25 158 167 
330 136 110 171 
331 153 48 159 
332 91 139 166 
333 110 166 171 
334 166 139 171 
335 111 149 160 
336 144 115 163 
337 100 153 159 
338 148 119 169 
339 145 44 170 
340 155 136 171 
$EndElements
